<svg version="1.1" xmlns="http://www.w3.org/2000/svg" viewBox="0 0 868.2498134635389 628.52734375" width="1736.4996269270778" height="1257.0546875">
  <!-- svg-source:excalidraw -->
  
  <defs>
    <style class="style-fonts">
      @font-face {
        font-family: "Virgil";
        src: url("https://excalidraw.com/Virgil.woff2");
      }
      @font-face {
        font-family: "Cascadia";
        src: url("https://excalidraw.com/Cascadia.woff2");
      }
    </style>
    
  </defs>
  <rect x="0" y="0" width="868.2498134635389" height="628.52734375" fill="#ffffff"></rect><g stroke-linecap="round" transform="translate(208.30840721353889 547.61328125) rotate(0 144 24)"><path d="M0 0 C0 0, 0 0, 0 0 M0 0 C0 0, 0 0, 0 0 M0.3 6.94 C1.89 3.79, 4.12 1.37, 5.25 -0.13 M-0.5 6.31 C1.15 4, 2.9 1.95, 4.71 0.54 M-0.21 12.01 C1.75 7.89, 5.25 6.54, 10.74 -0.42 M-0.1 12.37 C3.39 9.34, 6.65 5.82, 10.56 0.42 M-0.66 16.86 C4.62 12.57, 8.05 7.95, 16.96 -0.36 M-0.81 18.53 C2.87 15.14, 7.09 10.42, 15.78 0.61 M0 24.93 C8.61 18, 12.33 9.48, 21.35 -1.69 M-0.48 23.32 C6.18 17.72, 11.97 11, 21.05 -0.66 M1.11 29.79 C8.27 19.96, 15.48 11.11, 27.86 -1.16 M0.91 30.09 C6.76 23.33, 11.82 16.66, 27 1.07 M0.96 36.82 C6.28 26.41, 14 20.02, 33.27 -0.67 M-0.12 36.65 C10.27 25.13, 19.06 14.54, 32.18 0.55 M-0.39 41.73 C13.71 24.89, 29.32 8.49, 36.78 0.92 M0.49 41.97 C13.25 26.28, 27.45 11.41, 35.9 0.42 M0.34 46.21 C14.2 28.51, 30.85 12.49, 42.08 1.85 M1.13 49.11 C16.77 29.31, 32.26 12.48, 42.61 -0.51 M5.05 46.57 C19.8 31.66, 35.97 14.77, 46.92 1.77 M6.2 48.1 C16.04 37.24, 25.26 26.45, 46.73 0.28 M11.26 47.81 C25.37 34.38, 37.98 18.13, 53.14 -0.14 M10.38 47.18 C24.3 31.48, 40.05 15.16, 52.94 -0.67 M16.12 46.94 C31.43 32.55, 44.45 18.63, 56.27 -0.98 M16.92 48.37 C26.99 35.51, 39.55 23.69, 59.12 0.67 M23.22 47.18 C31.14 35.33, 43.69 26.39, 63.57 0.09 M21.72 48.88 C30.24 38.18, 40.09 27.96, 64.6 0.16 M26.1 48.21 C38.71 36.99, 48.7 26, 67.59 2 M27.16 47.57 C41.4 31.86, 55.05 14.64, 69.06 0.98 M32.38 46.28 C42.78 33.39, 55.97 18.75, 76.27 -0.02 M31.45 48.3 C41.88 36.26, 53.46 24.05, 74.86 -0.06 M39.26 48.45 C53.93 29, 71.76 9.41, 78.45 1.75 M36.51 48.37 C45.87 38.94, 55.74 27.83, 79.89 1 M41.65 48.78 C54.45 34.84, 67.69 16.33, 85.95 1.7 M43.24 47.91 C51.63 38.89, 59.55 28.64, 85.9 -0.46 M47.68 46.47 C61.08 32.17, 75.46 13.96, 91.16 1.06 M47.44 48.31 C56.91 37.6, 66.71 26.99, 89.33 -0.09 M54.76 46.08 C65.22 33.12, 75.26 20.22, 97.07 -1.88 M53.1 47.59 C66.17 33.62, 80.9 17.64, 95.71 -0.29 M57.18 47.75 C70.96 34.7, 86.16 15.68, 98.85 0.4 M58.27 48.83 C73.71 30.61, 91.17 12.34, 100.44 -0.71 M65.51 48.06 C75.36 31.77, 91.27 17.41, 105.89 -1.16 M63.75 48.34 C77.89 31.95, 91.17 16.42, 107.17 0.09 M69.41 46.52 C81.87 37.66, 93.62 21.23, 111.39 -0.01 M70.19 48.27 C82.32 33.56, 94.47 18.22, 110.63 0.09 M74.51 50.03 C87.45 33.19, 99.63 22.86, 117.77 0.94 M74.25 48.32 C85.25 36.33, 95.73 24.24, 116.34 0.96 M79.78 47.73 C95.09 31.76, 111.49 12.5, 121.47 1.76 M80.24 48.84 C92.48 33.99, 105.05 19.17, 122.7 -0.32 M83.13 47.3 C101.42 28.52, 118.05 9.22, 127.85 -0.05 M85.02 48.3 C94.22 37.99, 103.11 28.42, 126.14 1.24 M91.46 49.04 C107.01 28.73, 124.06 11.81, 130.55 -0.65 M90.31 47.65 C102.76 33.93, 113.44 21.54, 131.79 0.79 M94.21 50.14 C109.65 31.77, 125.27 14.79, 139.07 0.36 M95.54 47.73 C112.24 30.23, 128.59 10.99, 137.35 0.01 M101.43 46.82 C109.98 35.44, 120.45 26.24, 142.85 0.12 M102.17 47.7 C110.19 39.18, 118.87 28.67, 142.4 0.55 M105.36 50.55 C116.88 34.97, 127.78 25.96, 146.81 -1.33 M106.6 48.43 C118.58 32.73, 132.24 19.53, 148.28 0.45 M110.46 46.18 C123.1 35.46, 129.67 24.33, 155.41 -0.84 M112.44 48.89 C122.94 35.35, 134.15 22.1, 153.4 -0.5 M114.98 48.23 C125.8 35.8, 136.68 23.69, 160.22 2.05 M117.4 47.6 C130.67 32.43, 144 17.82, 159.09 -0.33 M121.06 46.94 C137.19 31.83, 148.16 16.68, 164.01 1.27 M121.6 48.99 C134.78 32.86, 147.13 18.63, 164.99 0.54 M128.24 48.6 C142.87 32.02, 156.8 16.32, 168.25 -1.57 M126.46 48.85 C141.06 32.87, 154.12 18.04, 168.82 -0.34 M131.55 49.63 C148.08 30.77, 161.67 13.18, 173.23 -1.02 M132.98 48.69 C149.59 31.07, 164.21 12.45, 175.78 -0.01 M139.09 48.82 C155.18 29.56, 167.84 14.89, 181.61 -1.57 M138.67 49.18 C147.86 38.66, 156.51 29.01, 180.35 0.29 M142.03 49.5 C153.09 36.97, 161.94 25.42, 186.45 -1.48 M143.79 48.54 C151.95 36.48, 161.92 27.34, 185.69 0.53 M148.27 47.75 C165.38 30.29, 175.87 14.36, 190.81 1.4 M148.29 47.96 C160.82 33, 173.47 19.32, 191.42 0.32 M152.39 46.54 C165.27 37.52, 173.55 28.18, 195.8 -2.16 M154.08 48 C170.62 30.08, 186.62 11, 197.02 0.26 M161.3 47.97 C168.76 39.37, 177.77 27.55, 200.13 1.41 M159.93 47.98 C170.05 36.18, 182.63 23.22, 201.64 0.42 M164.26 47.43 C178.88 32.26, 194.43 13.93, 208.2 0.64 M165.77 48.41 C175.5 36.62, 185.66 24.03, 207.44 -0.34 M170.48 49.79 C181.54 37.07, 190.61 20.69, 213.64 1.25 M169.56 48.4 C185.76 28.94, 202.8 8.83, 211.47 0.13 M175.11 47.59 C187.29 32.58, 201.11 18.09, 219.37 -1.7 M175.63 48.01 C186.15 35.18, 196.08 23.08, 216.96 0.59 M180.88 49.22 C191.78 34.32, 208.69 16.53, 221.18 -1.58 M181.52 47.76 C195.56 31.06, 209.2 13.99, 223.23 0.89 M187.48 49.89 C197.1 33.38, 209.22 21.67, 227.79 -0.06 M185.65 49.69 C197.9 35.81, 207.91 21.79, 228.96 -0.69 M192.38 48.01 C206.14 33.95, 219.71 17.74, 232.38 -0.86 M191.48 49.03 C207.04 29.63, 222.12 13.22, 234.11 -0.97 M197.7 47.69 C206.73 36.36, 217.43 23.06, 240.06 -0.85 M196.62 48.94 C204.03 39.49, 212.46 29.52, 238.53 0.22 M201.61 47.62 C218.26 30.15, 232.96 11.2, 242.66 0.36 M201.51 48.54 C213.67 33.46, 227.1 17.76, 243.14 0.77 M205.9 47.3 C217.36 35.31, 232.74 18.75, 247.56 0.96 M207.26 49.43 C214.79 38.62, 223.71 27.39, 248.06 -0.13 M212 47.21 C226.6 35.5, 236.57 17.49, 255.19 -0.25 M213.01 49.01 C228.48 30.8, 243.96 11.39, 254.24 -0.78 M216.63 47.01 C230.84 31.51, 246.42 17.67, 260.46 0.41 M217.77 48.96 C227.62 35.35, 239.77 22.76, 260.36 0.42 M223.76 49.69 C232.98 35.42, 245.05 25.27, 266.95 1.67 M223.75 48.56 C232.99 36.8, 241.95 25.39, 265.15 -0.62 M228.25 47.82 C242.99 30.79, 256.38 16.35, 268.37 1.49 M228.22 49.21 C236.2 38.21, 247.01 28.05, 270.25 -0.28 M231.86 47.67 C246.42 32.93, 262.49 14.42, 274.69 -0.77 M232.85 47.71 C244.06 36.41, 255.23 24.62, 276.51 -0.85 M238.87 47.46 C249.35 37.57, 260.59 21.97, 281.67 -0.1 M239.55 48.77 C251.76 32.75, 264.18 19.39, 280.89 0.95 M244.09 49.49 C259.18 28.86, 274.04 10.85, 284.95 0.25 M243.81 48.35 C255.05 36.3, 265.37 24.28, 286.78 0.3 M248.42 50.38 C258.19 37.25, 270.29 24.75, 288.25 2.58 M248.55 48.11 C259.34 35.66, 270.56 24.61, 289.52 1.25 M254.98 49.2 C266.58 35.64, 280.27 18.91, 288.82 9.57 M255.47 48.77 C268.09 32.11, 280.7 16.84, 290.09 7.82 M260.58 49.73 C267.6 39.93, 276.77 31.25, 290.16 15.73 M260.88 48.58 C270.88 34.72, 282.28 21.44, 291.15 14.65 M263.87 48.57 C275.77 37.46, 283.86 27.29, 290.34 21.9 M265.04 48.66 C271.98 39.76, 279.43 32.4, 289.58 19.73 M268.83 49.39 C276.55 38.91, 287.1 30.6, 289.35 27.65 M270.03 47.44 C276.73 41.16, 283.91 34.15, 291.21 25.98 M276.87 47.08 C279.26 45.32, 281.8 39.51, 288.67 33.47 M277.08 48.08 C279.04 43.26, 282.55 39.93, 290.59 31.72 M282 49.41 C282.73 45.22, 285.34 44.18, 290.36 38 M280.69 48.68 C282.98 46.16, 285.06 44.43, 289.71 38.7 M287.39 47.98 C287.77 46.64, 289.35 45.27, 289.99 43.9 M286.79 48.11 C288.05 46.99, 288.65 45.69, 290.38 44.44" stroke="#eaddd7" stroke-width="0.5" fill="none"></path><path d="M-1.03 0.22 C59.77 2.09, 118.71 2.47, 289.01 -1.44 M-0.46 0.68 C62.38 2.3, 125.3 2.62, 287.72 0.73 M286.3 1.52 C289.16 15.54, 289.88 33.73, 288.31 47.73 M288.31 0.87 C289.08 17.81, 287.83 36.52, 287.07 48.85 M287.9 48.14 C187.07 50.93, 87.67 48.61, -0.84 48.65 M287.71 47.38 C223.58 49.39, 159.5 49.15, 0.29 48.32 M-0.44 47.64 C1.8 29.88, -0.34 10.75, -0.06 -1.5 M0.9 47.48 C0.01 33.8, 0.84 19.7, -0.32 -0.53" stroke="#1e1e1e" stroke-width="1" fill="none"></path></g><g transform="translate(322.3084072135389 559.11328125) rotate(0 30 12.5)"><text x="30" y="0" font-family="Virgil, Segoe UI Emoji" font-size="20px" fill="#1e1e1e" text-anchor="middle" style="white-space: pre;" direction="ltr" dominant-baseline="text-before-edge">保留区</text></g><g stroke-linecap="round" transform="translate(208.08575096353889 495.30859375) rotate(0 144 24)"><path d="M0 0 C0 0, 0 0, 0 0 M0 0 C0 0, 0 0, 0 0 M-0.38 6.92 C1.77 4.42, 3.57 1.47, 4.95 1.12 M-0.16 6.14 C0.86 5.25, 1.71 3.49, 5.29 0.31 M-1.2 11.67 C4.66 8.38, 7.76 5.36, 9.54 1.21 M-0.38 11.27 C2.84 8.63, 6.53 5.15, 10.88 0.71 M-1.96 19.13 C3.13 15.22, 8.49 7.3, 14.26 -1.23 M-0.42 18.96 C3.36 14.38, 5.43 11.75, 16.04 0.59 M0.96 25.8 C4.94 18.7, 12.83 8.91, 22.76 0.64 M0.91 24.64 C8.5 13.77, 17.7 4.46, 21.99 -0.6 M1.41 32.06 C11.36 20.34, 19.67 10.13, 24.31 0.51 M0.97 29.65 C7.66 23.36, 14.45 14.25, 26.37 -0.66 M0.34 36.37 C11.37 23.76, 23.92 8.18, 33.23 0.67 M0.73 35.97 C9.31 25.59, 21.02 13.65, 31.77 0.82 M0.3 41.6 C7.89 30.88, 19.38 20.89, 38.09 0.54 M-0.21 42.7 C10.05 31.91, 19.76 18.89, 36.6 0.01 M-1.04 46.74 C11.7 32.32, 27.8 19.31, 43.84 -1.19 M1.11 48.99 C12.92 32.66, 25.94 18.67, 43.46 -0.75 M4.48 47.53 C21.1 30.59, 40.49 9.8, 49.38 1.67 M4.75 48.87 C21.94 29.15, 38.58 10.02, 47.95 0.51 M12.53 46.51 C23.79 34.41, 35.83 18.71, 53.54 0.97 M12.11 48.51 C27.12 30.19, 40.88 13.98, 53.07 -0.31 M14.27 48.38 C30.37 34.39, 41.27 16.12, 56.76 -1.57 M16.21 47.82 C31.93 31.51, 47.26 11.51, 58.01 0.14 M23.16 46.16 C37.18 32.59, 50.1 16.9, 63.05 -0.21 M21.78 47.84 C33.61 33.47, 46.36 20.25, 64.5 -1.01 M26.52 47.45 C36.2 34.58, 50.62 22.98, 69.6 -0.95 M27.11 49.17 C36.87 35.94, 48.67 23.5, 69.7 0.61 M33.59 46.55 C45.92 30.25, 59.88 15.23, 72.86 0.61 M33.37 47.36 C43.44 34.83, 55.78 21.98, 74.49 -1.06 M39.11 46.71 C51.98 30.96, 65.27 14.74, 78.05 -0.5 M36.5 49.35 C48.5 36.52, 59.53 23.24, 80.33 1 M43.34 48.26 C57.9 34.19, 70.88 15.27, 85.26 -0.49 M42.5 48.84 C56.88 32.94, 71.5 15.33, 85.64 -0.81 M47.69 46.85 C62.85 30.82, 77.41 13.76, 91.02 1.44 M47.31 48.73 C61.18 32.42, 74.66 17.61, 90.57 0.78 M54.71 49.6 C68.35 33.56, 78.54 18.68, 94.32 1.26 M54.13 48.46 C61.56 37.8, 70.81 27.84, 95.41 0.28 M59.71 49.3 C69.25 39.8, 75.23 27.24, 102.22 -1.72 M59.31 48.53 C70.97 33.97, 84.58 18.68, 101.42 0.84 M62.12 49.34 C80.95 30.01, 97.65 12.13, 107.88 1.37 M62.95 48.52 C74.55 33.99, 87.92 20.1, 107.14 -1.34 M68.38 50.17 C78.05 37, 90.68 23.76, 112.13 1.13 M70.13 47.87 C80.4 35.6, 90.57 23.79, 111.27 0.42 M72.75 49.71 C83.85 37.18, 92.05 28.43, 116.91 0.82 M74.95 49.46 C85.72 33.8, 99.87 20.67, 116.34 0.41 M78.71 46.31 C93.15 32.25, 108.23 14.05, 122.04 0.82 M80.27 48.79 C94.02 32.4, 108.32 17.36, 122.85 0.18 M84.57 46.93 C101.3 32.03, 119.37 12.24, 128.13 1.05 M84.53 49.38 C93.09 38.23, 103.48 27.48, 126.37 1.23 M89.49 49.31 C99.69 36.12, 109.7 26.52, 131.98 1.91 M90.09 49.18 C98.73 37.9, 108.94 28.37, 132.26 -0.85 M95.03 50.17 C105.95 38.85, 116.71 24.3, 138.09 -1.53 M96.1 47.99 C109.25 32.03, 124.18 16.18, 137.48 0.01 M99.27 47.43 C116.28 31.11, 132.31 10.93, 142.78 0.66 M100.8 47.84 C116.66 31.64, 130.41 13.24, 143.96 -0.23 M106.32 48.33 C116.78 38.15, 124.32 29.84, 149.74 -0.54 M106.42 48.42 C123.39 29.25, 139.08 10.12, 148.42 0.72 M112.4 47.68 C121.18 36.8, 135.41 21.7, 154.06 -0.93 M111.47 47.46 C125.37 33.22, 138.37 15.93, 153.75 0.86 M115.42 48.03 C129.09 32.2, 144.38 16.84, 157.84 -0.88 M117.62 48.18 C129.91 33.57, 142.86 19.06, 158.82 0.28 M121.01 49.8 C136.45 31.85, 148.49 20.14, 166.22 -1.15 M122.03 47.63 C133.42 35.27, 142.71 24.48, 163.82 0.62 M128.12 47.59 C138.4 33.07, 153.09 19.27, 170.93 -0.73 M128.19 48.16 C141.6 30.92, 157.55 13.31, 170.15 -0.54 M135.02 48.22 C151.63 31.01, 167.81 11.88, 174.41 -0.59 M132.27 47.8 C148.69 30.52, 162.86 12.25, 175.7 -0.32 M136.95 47.06 C146.25 37.42, 155.91 26.05, 181.32 -1.55 M137.98 47.66 C147.93 37.33, 158.56 24.68, 180.75 -0.07 M144.1 46.11 C156.17 33.91, 169.84 19.52, 186.61 -0.08 M142.86 48.34 C155.6 35.01, 167.68 20.87, 185.28 0.01 M147.24 50.23 C158.14 34.95, 168.85 23.96, 191.11 1.91 M149.19 49.36 C158.18 36.23, 168.48 25.05, 190.83 -0.74 M155.74 49.34 C164.8 33.82, 177.66 19.25, 197.55 1.23 M154.29 47.51 C168.28 32.39, 181.11 17.86, 195.82 0 M159.12 46.58 C175.43 28.05, 189.79 11.83, 202.17 -0.38 M159.38 48.33 C175.99 28.68, 191.79 9.99, 201.43 -0.1 M165.17 48.51 C177.85 31.21, 191.86 20.21, 206.74 -0.08 M165.94 48.44 C180.62 31.15, 196.14 12.87, 206.92 -0.58 M169.47 49.32 C180.55 33.79, 191.5 23.36, 210.16 0.28 M170.49 49.03 C185.86 29.77, 203.18 10.05, 211.48 0.2 M177.45 48.95 C191.18 29.83, 209.05 10.09, 216.48 -1.7 M175.03 48.17 C184.68 37.18, 193.77 27.85, 217.57 0.45 M181.97 49.37 C195.85 29.86, 210.66 15.86, 222.52 1.3 M179.8 48.31 C190.96 35.74, 200.74 26.07, 222.75 -0.61 M184.72 49.44 C197.75 37.38, 207.04 26.1, 229.86 -1.6 M185 49.37 C195.85 36.31, 205.72 23.53, 229.08 0.63 M193.06 49.38 C203 32.59, 216.3 16.8, 232.48 -1.2 M190.94 48.42 C199.41 38.21, 208.06 28.2, 232.88 0.6 M194.89 49.23 C206.52 35.85, 220.65 22.75, 240.09 0.69 M197.11 48.35 C209.14 33.28, 221.7 20.47, 237.49 0.67 M202 49.72 C216.75 33.37, 229.71 19.07, 245.03 1.65 M200.92 47.99 C213.75 35.76, 224.67 21.68, 244.36 -0.16 M205.69 50.55 C214.19 37.36, 224.6 28.68, 247.1 -0.86 M207.51 48.57 C218.19 36.93, 229.13 24.26, 249.17 0.4 M212.79 46.47 C228.31 30.95, 238.89 17.42, 254.96 1.4 M213.11 49.05 C225.8 34.01, 237.14 20.03, 253.54 -0.97 M217.27 49.59 C233.3 29.22, 250.42 10.69, 259.69 -0.32 M216.87 48.62 C227.58 36.73, 238.27 25.4, 259.86 0.29 M224.24 49.44 C236.22 31.32, 253.56 15.53, 264.84 -1.65 M222.22 48.01 C233.55 37.06, 242.57 26.06, 265.64 -1.04 M229.58 47.26 C238.81 37.2, 251.02 20.65, 272.04 -0.81 M228.71 47.99 C245.64 29.46, 261.41 11.53, 270.35 -0.53 M231.93 48.13 C243.54 35.8, 254.15 26.92, 275.01 -0.5 M233.34 48.68 C247 32.39, 260.56 17.9, 275.74 0.32 M240.33 47.19 C246.88 37.22, 258.55 25.14, 281.15 0.3 M238.42 48.05 C252.06 31.8, 265.22 16.36, 280.74 -0.55 M246.21 49.8 C254.35 39.14, 261.35 24.87, 285.6 0.56 M244.9 47.25 C256.24 35.27, 267.97 21.23, 285.76 0.69 M251.03 49.74 C259.77 37.01, 270.83 20.79, 291.47 2.86 M250.24 49.07 C259.99 36.69, 270.7 23.35, 290.23 2.63 M254.24 49.4 C266.74 37.09, 273.59 26.22, 291.29 8.3 M255.71 47.32 C266.5 35.97, 275.56 23.57, 290.28 7.83 M260.96 49.97 C270.38 36.17, 281.8 24.05, 291.68 11.95 M260.28 49.22 C269.59 39.45, 277.7 29.46, 290.77 13.37 M265.93 47.61 C275.53 40.3, 282.74 29.78, 289.72 21.34 M265.93 48.85 C273.35 38.29, 282.59 29, 289.89 19.6 M269.18 47.66 C274.12 42.44, 280.74 37.69, 288.3 24.8 M271.5 47.53 C277.3 41.68, 282.97 35.94, 289.77 25.77 M276 48.82 C281.93 39.96, 286.21 35.06, 291.65 33.78 M276.07 47.22 C282.04 41.59, 287.2 35.58, 290.38 32.45 M280.79 49 C283.2 44.54, 285.62 43.48, 289.13 39.27 M280.91 48.75 C283.94 46.08, 285.04 43.82, 290.01 37.98 M286.65 47.78 C287.3 47.47, 288.71 46.2, 289.7 44.22 M286.67 48.04 C287.9 46.84, 288.67 45.94, 290.4 44.04" stroke="#ffc9c9" stroke-width="0.5" fill="none"></path><path d="M0.22 0.94 C103.71 -1.59, 208.12 -1.66, 287.32 -1.14 M-0.31 -0.61 C59.82 2.56, 120.83 2.18, 287.76 0.17 M286.92 0.28 C288.19 17.84, 286.42 34.82, 286.39 48.71 M287.57 -0.65 C287.37 10.84, 288.43 22.11, 288.88 48.12 M286.92 47.79 C225.44 49.12, 165.18 48.92, -1.4 48.64 M288.09 48.06 C190.52 48.21, 91.56 48.71, -0.52 48.51 M-0.99 49.07 C-1.14 37.11, -1.25 29.57, -0.35 1.2 M-0.16 47.67 C-0.93 36.36, -0.78 27.29, -0.37 -0.26" stroke="#e03131" stroke-width="1" fill="none"></path></g><g transform="translate(290.2302822135389 506.80859375) rotate(0 61.85546875 12.5)"><text x="61.85546875" y="0" font-family="Virgil, Segoe UI Emoji" font-size="20px" fill="#e03131" text-anchor="middle" style="white-space: pre;" direction="ltr" dominant-baseline="text-before-edge">代码段(.text)</text></g><g stroke-linecap="round" transform="translate(208.16387596353889 442.4375) rotate(0 144 24)"><path d="M0 0 C0 0, 0 0, 0 0 M0 0 C0 0, 0 0, 0 0 M-0.46 5.79 C0.58 5, 1.57 3.92, 4.8 -0.05 M-0.59 6.54 C1.53 4.61, 3.48 1.77, 5.2 0.67 M0.23 11.67 C1.9 8.98, 4.95 4.73, 9.96 -1.3 M0.03 12.44 C3.27 8.28, 6.95 5.8, 10.87 0.26 M1.03 20.25 C3.72 13.13, 7.27 9.92, 16.27 1.82 M0.1 19.36 C5.38 12.48, 9.62 7.37, 16.26 0.7 M-0.03 24.19 C6.05 17.1, 14.82 10.05, 21.41 -0.8 M0.32 23.22 C8.63 14.49, 16.12 7.3, 21.39 0.59 M1.86 30.8 C4.5 24.23, 9.94 18.66, 24.37 -0.19 M-0.9 29.96 C5.61 22.88, 11.72 17.02, 25.36 -0.16 M1.23 38.44 C6.97 25.77, 18.78 14.62, 32.04 -1.16 M-1.12 37.36 C9.07 25.67, 19.72 15.24, 32.72 0.15 M1.23 42.88 C15.33 28.23, 28.84 13.28, 36.6 1.62 M-0.82 41.82 C11.63 29.4, 23.23 16.34, 36.32 0.48 M-0.87 49.01 C17.86 28.62, 33.89 11.75, 41.59 1.76 M1.45 47.27 C9.01 38.18, 16.99 29.33, 41.72 -0.52 M5.67 47.5 C16.09 36.4, 28.7 23.24, 47.49 1.33 M4.67 48.05 C18.12 35.02, 29.62 20.2, 47.98 0.9 M10.13 48.78 C22.53 34.41, 34.82 22.64, 53.75 1.1 M11.71 48.13 C24.03 34.96, 36.01 20.41, 54.04 -0.04 M16.25 50.45 C28.47 37.86, 38.26 25.63, 56.38 0.7 M15.55 48.71 C33.69 28.94, 48.74 11.18, 57.55 0.79 M21.09 47.46 C32.33 36.53, 43.64 24.35, 61.99 0.77 M21.36 47.62 C32.58 36.79, 40.98 24.76, 63.2 -1.18 M26.57 50.29 C39.2 33.4, 51.22 18.95, 69.38 -0.79 M26.38 47.77 C39 34.52, 50.14 21.18, 69.58 0.21 M31.51 49.16 C42.21 35.81, 52.94 25.45, 75.57 1.34 M33.25 48.51 C42.13 36.08, 53.31 25.15, 73.55 0.21 M39.25 48.22 C49.25 37.09, 61.91 21.25, 81.38 0.08 M37.85 48.07 C46.1 37.41, 56.44 27.21, 79.02 0.63 M41.65 49.72 C61.53 28.07, 76.74 8.7, 85.51 -1.85 M42.64 48.94 C57.29 30.25, 73.28 14.67, 85.34 0.16 M46.7 48.2 C63.52 31.57, 77.51 12.77, 90.06 0.24 M48.51 48.31 C64.18 30.37, 79.25 12.26, 90.13 -0.11 M54.56 46.69 C66.62 35.02, 81.2 17.44, 94.64 -0.78 M54.11 47.45 C69.14 30.52, 85.19 12.28, 95.64 -0.4 M57.12 46.89 C68.11 37.36, 77.88 27.06, 101.88 0.32 M57.74 48.12 C69.88 34.61, 82.47 20.79, 101.57 -0.75 M65.41 50.1 C73.53 39.68, 80.18 27.99, 107.54 -0.69 M63.98 48.73 C77.31 32.01, 92.63 16.57, 105.41 -0.66 M68.47 47.67 C84.15 29.97, 100.08 13.26, 110.06 -1.3 M68.82 48.99 C84.88 30.49, 100.86 12.96, 111.33 0.34 M74.13 49.43 C89.86 32.98, 104.94 14.91, 115.95 -1.34 M73.85 49.59 C89.8 31.37, 105.03 13.43, 115.8 -0.17 M78.5 46.63 C87.84 37.25, 98.48 29.23, 120.64 1.46 M79.87 47.32 C91.02 34.5, 101.83 21.72, 121.78 0.18 M83.46 48.14 C95.52 33.82, 108.89 23.29, 127.33 1.94 M85.76 48.5 C97.71 35.23, 109.6 20.17, 127.79 1.17 M90.75 46.6 C100.88 35.71, 115.5 20.49, 134.4 0.4 M90.85 47.38 C101.68 34.41, 113.71 21.55, 132.64 0.19 M95.56 46.65 C108.29 36.96, 118.75 21.71, 138.96 0.83 M95.73 49.56 C106.6 35.92, 117.84 21.92, 137.24 0.6 M100.54 47.11 C116.65 30.67, 132.35 10.45, 144.93 -0.95 M100.62 48.36 C114.24 32.31, 126.13 18.55, 143.99 -0.83 M105.4 49.12 C122.31 29.77, 135.57 11.4, 146.57 0.94 M106.17 48.27 C117.36 36.76, 128.56 23.82, 148.55 0.48 M112.96 46.41 C129.21 30.15, 143.41 12.44, 152.59 -1.37 M111.86 47.31 C126.43 32.58, 141.24 14.35, 153.27 0.31 M118.71 49.41 C131.46 34.22, 146.14 15.53, 157.66 0.64 M116.82 48.5 C133.26 28.18, 151.28 10.9, 158.96 0.09 M120.89 47.48 C130.82 34.82, 141.99 22.89, 162.52 0.11 M122.14 48.19 C137.79 30.24, 153.11 13.21, 164.28 0.22 M126.01 49.1 C138.09 38.62, 148.73 26.77, 169.51 0.99 M127.79 47.53 C136.9 38.32, 145.8 26.51, 169.56 0.58 M134.98 48.02 C143.77 38.18, 152.32 28.69, 174.65 -1.83 M132.88 48.84 C142.77 36.57, 154.52 24.55, 174.18 -0.14 M136.6 47.5 C152.11 32.86, 163.97 15.43, 179.19 -0.23 M138.56 49.04 C149.68 35.8, 160.65 22.61, 180.34 0.01 M145.68 46.43 C152.89 37.07, 165.09 25.81, 185.68 -0.79 M144.34 48.01 C152.46 37.04, 161.75 24.67, 186.48 -0.39 M148.56 47.61 C165.21 29.49, 179.69 12.29, 189.54 1.49 M148.95 48.06 C160.02 36.62, 169.94 24.79, 191.1 0.31 M153.21 47.85 C170.56 31.47, 183.05 12.6, 195.1 -0.67 M154.67 48.31 C165.42 35.87, 177.97 21.12, 196.07 0.21 M158.76 50.2 C170.7 33.81, 184.16 20.88, 203.19 -0.62 M160.16 48.06 C169.09 37.9, 179.25 24.91, 200.53 0.31 M165.57 46.12 C177.63 36.08, 185.32 23.92, 207.18 -1.63 M164.85 47.26 C178.1 33.12, 190.3 19.35, 206.18 -0.17 M168.82 47.71 C182.25 33.45, 192.99 22.3, 212.55 1.37 M169.74 47.87 C184.46 31, 200.71 12.62, 211.18 0.72 M176.54 49.82 C186.86 30.85, 200.65 18.15, 216.97 -2.11 M175.75 48.27 C190.27 31.1, 203.41 16.23, 217.42 -1 M179.19 50.31 C193.37 29.79, 211.66 14.68, 221.81 0.13 M180.6 48.71 C191.96 33.86, 203.84 22.01, 222.43 -0.83 M187.04 48.97 C195.03 36.71, 209.1 23.53, 228.29 -0.85 M186.43 48.4 C193.48 38.23, 203.54 28.29, 228.72 -0.35 M191.05 47.92 C200.72 37.22, 210.62 25.36, 232.95 -0.95 M191.99 49.2 C203.02 35.37, 215.12 20.65, 233.57 -0.84 M197.71 50.09 C205.81 38.55, 214.2 28.96, 239.11 1.9 M195.75 48.31 C204.98 38.53, 213.1 28.17, 237.76 0.86 M200.41 48.14 C215.8 33.87, 227.13 16.47, 243.7 -1.79 M202.56 48.36 C218.65 30.51, 234.14 10.39, 244.7 -0.94 M207.04 46.65 C217.65 34.37, 231.67 23.42, 250.12 -0.66 M207.52 47.86 C216.77 37.57, 225.34 28.45, 248.52 0.84 M212.03 46.3 C222.1 37.35, 231.09 26.74, 253.62 0.44 M213.29 48.58 C224.57 34.12, 238.53 17.82, 253.8 -0.82 M215.93 50.08 C233.28 32.01, 244.85 15.41, 258.85 0.65 M218 48 C227.39 37.5, 237.72 26.1, 260.37 0.43 M221.46 47.46 C235.89 32.39, 249.17 21.09, 266 1.27 M222.52 48.65 C231.64 36.73, 240.22 26.69, 265.71 0.67 M229.08 48.56 C239.46 33.47, 249.66 23.48, 268.26 1.98 M228.36 48.59 C237.26 38.82, 243.78 28.37, 269.72 1.14 M233.03 48.38 C247.19 32.7, 263.2 15.21, 273.95 -1.04 M232.97 48.76 C250.21 30.23, 264.77 11.74, 275.13 0.61 M236.94 48.97 C255.31 29.57, 267.66 14.96, 280.07 1.18 M239.61 49.4 C248.12 38.15, 256.58 27.78, 280.31 0.84 M245.85 47.57 C261.74 27.89, 277.55 12.76, 286.35 0.49 M244.69 47.47 C260.38 29.1, 276.2 11.73, 285.62 -1.06 M249.78 46.89 C258.4 39.62, 265.7 27.04, 291.5 1.36 M249.61 49.05 C260.2 35.67, 271.41 22.86, 290.95 2.32 M255.81 47.22 C265.46 35.26, 276.67 22.18, 290.64 7.84 M254.11 48.75 C264.62 37.41, 274.03 27.4, 289.38 7.82 M259.63 48.66 C269.48 38.86, 277.67 28.07, 291.97 14.88 M260.1 48.09 C269.86 35.53, 280.75 24.11, 289.22 14.31 M265.59 47.26 C271.65 42.32, 275.99 32.72, 289.19 18.9 M265.02 48.95 C275.04 37.27, 282.92 27.77, 290.62 19.45 M270.3 49.3 C279.47 41.64, 285.95 30.86, 288.75 26.18 M269.66 47.94 C278.77 39.6, 284.83 32.45, 290.16 25.29 M274.64 47.35 C280.05 43.99, 286.14 36.52, 289.5 31.03 M275.55 47.81 C280.47 43.17, 286.65 37.79, 290.75 32.69 M280.04 47.21 C282.76 45.69, 287.73 42.39, 289.95 37.39 M280.92 48.07 C283.95 44.6, 287.32 42.43, 290.11 39.15 M286.47 48.2 C287.71 46.59, 289.71 45.31, 290.52 44.68 M286.97 47.86 C287.95 46.79, 288.86 45.63, 290.32 44.42" stroke="#99e9f2" stroke-width="0.5" fill="none"></path><path d="M-0.89 0.98 C106.19 0.7, 211.2 2.17, 289.44 0.9 M0.09 -0.16 C90.46 -0.94, 181.03 -0.53, 288.05 0.75 M288.2 1.49 C287.67 19.17, 288.72 38.23, 289.16 47.72 M288.85 -0.41 C288.03 17.74, 288.38 33.98, 288.26 48.74 M288.65 49.36 C190.9 47.35, 95.69 46.56, 1.13 47.27 M287.85 48.7 C214.37 45.83, 141.56 46.52, 0.32 48.21 M1.16 48.66 C-0.59 39, -1.06 27.02, -0.23 -0.65 M-0.44 47.41 C0.21 32.48, 0.73 15.95, -0.34 0.28" stroke="#2f9e44" stroke-width="1" fill="none"></path></g><g transform="translate(249.38067283853889 453.9375) rotate(0 102.783203125 12.5)"><text x="102.783203125" y="0" font-family="Virgil, Segoe UI Emoji" font-size="20px" fill="#2f9e44" text-anchor="middle" style="white-space: pre;" direction="ltr" dominant-baseline="text-before-edge">已初始化的数据(.data)</text></g><g stroke-linecap="round" transform="translate(209.90606346353889 387.69921875) rotate(0 144 24)"><path d="M0 0 C0 0, 0 0, 0 0 M0 0 C0 0, 0 0, 0 0 M-0.57 6.45 C1.36 5.15, 2.84 3.31, 5.26 0.77 M0.09 6.77 C1.68 4.56, 3.52 1.85, 4.92 0.02 M0.91 13.02 C3.78 6.85, 6.83 6.05, 10.01 1.14 M-0.1 11.62 C3.34 8.58, 5.62 5.87, 10.2 0.39 M1.27 17.87 C6.06 11.91, 9.25 7.48, 14.68 2.19 M0.03 18.15 C3.19 13.06, 7.05 8.84, 15.36 1.11 M-0.79 24.63 C4.29 17.66, 11.26 9.69, 22.36 -1.3 M-0.31 24.03 C5.59 18.48, 11.4 10.83, 20.3 -0.46 M-0.64 30.08 C7.27 24.07, 14.78 13.98, 25.46 -0.46 M-0.67 31.26 C9.78 18.17, 20.42 7.21, 26.32 0.17 M1.57 38.45 C11.57 24.3, 24.95 6.32, 32.37 -0.41 M-0.46 37.13 C11.39 23.97, 22.51 12.62, 32.18 -0.35 M-0.61 42.78 C7.42 32.93, 15.1 23.92, 36.17 -1.18 M-0.62 42.46 C10.24 32.25, 19.2 21.6, 36.18 0 M0.91 47.21 C9.25 36.92, 20.31 27.14, 44.14 -0.86 M0.53 48.19 C15.17 31.21, 29.49 14.39, 41.8 0.69 M7.5 50.3 C19.27 30.9, 34.24 16.93, 46.66 -0.82 M6.19 47.91 C20.97 32.22, 34.51 14.8, 47.85 -0.24 M10.25 49.64 C19.92 38.47, 30.47 26.09, 54.65 -0.86 M10.76 48.85 C19.24 39.08, 27.89 27.23, 54.12 -0.12 M17.29 47.83 C31.7 30.68, 48.04 11.26, 56.53 -0.43 M15.39 49.12 C29.94 31.87, 43.69 17.21, 57.58 -0.52 M19.97 49.36 C31.08 34.4, 42.33 24.49, 63.6 -1.82 M21.36 48.79 C31.82 35.9, 42.98 24.22, 63.98 -1.19 M27.83 49.37 C39.01 33.85, 49.43 21.38, 67.06 0.69 M27.27 48.04 C37.34 35.71, 47.33 22.92, 68.04 1.05 M31.99 48.48 C44.19 36.02, 53.5 25.5, 75.39 1.61 M31.67 48.2 C44.34 33.6, 57.74 19.31, 75.11 0.41 M36.15 49.64 C48.55 38, 58.2 26.61, 79.29 -0.94 M38.25 47.91 C53.87 30.67, 70.58 11.09, 79.29 -0.79 M43.96 48.87 C55.98 35.28, 69.92 17.97, 85.15 -0.42 M42.45 48.14 C57.09 32.38, 71.35 16.19, 85.14 -0.02 M50 48.16 C61.36 35.06, 74.29 18.54, 91.96 0.95 M48.65 48.35 C60.68 32.65, 74.63 18.46, 89.78 0.56 M55.23 46.2 C65.4 37.04, 75.56 22.47, 96.74 1.01 M52.82 47.53 C63.94 36.88, 73.24 25.03, 96.59 0.18 M57.87 47.25 C68.14 33.9, 81.15 22.15, 99.51 0.44 M59.67 48.33 C72.16 34.36, 84.15 20.33, 101.35 0.57 M64.24 48.66 C80.58 29.6, 93.3 14.18, 104.72 -0.39 M64.65 48.89 C76.41 33.34, 90.46 19.23, 105.87 0.03 M70.95 49.96 C84.45 27.94, 102.69 11.92, 110.14 1.37 M68.4 49.17 C82.95 34.15, 94.44 18.93, 112.21 0.56 M73.11 47.95 C82.57 36.36, 93.35 28.91, 115.72 0.62 M74.17 48.35 C86.17 35.61, 97.25 22.04, 115.62 0.66 M81.14 50.18 C89.73 37.14, 99.79 24.65, 123.73 -0.63 M80.84 47.58 C94.78 32.18, 108.91 15.01, 121.99 0.71 M85.69 49.84 C103.22 28.78, 116.48 9, 125.05 -0.2 M85.04 49.16 C96.18 34.66, 108.1 22.31, 126.33 1.3 M91.08 46.53 C99.14 36.4, 109.45 25.69, 133.9 -0.16 M90.85 48.59 C105.01 31.41, 119.42 13.77, 132.71 -0.93 M96.23 49.1 C114.16 29.59, 128.85 8.95, 138.8 1.95 M95.94 47.68 C109.92 32.11, 125.89 14.45, 137.44 0.81 M100.12 48.45 C113.1 32.66, 127.38 18.54, 141.99 -0.03 M101.21 48.62 C115.04 32.59, 128.86 16.95, 143.75 0.53 M106.69 48.32 C114.91 35.19, 126.26 24.05, 146.39 -0.09 M106.96 49.12 C119.08 32.53, 134.45 16.49, 148.91 -0.38 M110.32 50.13 C121.72 36.92, 133.45 20.69, 155.04 -1.26 M112.56 48.44 C127.31 28.84, 144.4 10.56, 152.9 -0.14 M116.74 47.82 C130.75 32.42, 143.63 16.25, 158 1.28 M116.59 48.55 C129.73 33.68, 141.5 20.27, 159.6 -0.43 M120.47 48.58 C132.91 36.76, 144.34 25.69, 163.83 -1.1 M122.47 48.17 C133.61 34.32, 146.73 21.77, 165.36 0.68 M125.77 47.74 C142.3 31.42, 154.35 16.1, 170.5 -1.54 M126.68 47.91 C141.4 32.85, 153.1 18.37, 170.26 0.83 M132.08 49.55 C143.42 36.63, 152.01 25.88, 176.84 0.99 M132.37 48.31 C146.47 33.42, 157.3 18.59, 174.69 0.46 M138.92 49.99 C153.87 30.86, 168.85 10.94, 181.49 -1.38 M137.51 48.98 C154.13 30.64, 170.57 10.69, 180.54 0.93 M143.37 49.59 C154.27 33.58, 167.36 19.32, 186.29 1.31 M144.58 48.69 C158.76 30.11, 174.14 10.68, 185.85 -0.45 M148.99 48.26 C165.32 31.1, 181.43 10.11, 191.29 1.72 M148.71 48.42 C159.03 35.52, 170.78 23.85, 189.97 -0.24 M155.28 46.04 C162.99 36.85, 171.79 27.87, 198.1 -2.04 M155.33 47.52 C169.89 30.7, 184.59 11.65, 196.2 0.14 M158.56 50.01 C174.45 34.88, 184.89 16.89, 200.93 -1.51 M158.34 48.74 C175.43 29.98, 191.12 11.83, 200.97 0.57 M165.48 47.01 C178.18 33.79, 189.28 21.28, 205.93 0.83 M165.73 48.37 C179.9 29.29, 196.07 11.99, 206.48 -0.71 M169.89 46.5 C178.99 36.75, 188.72 25.06, 210.18 0.46 M169.81 49.31 C184.41 32.19, 200.08 14.12, 211.85 0.99 M174.34 49.38 C186.5 38.27, 195.44 25.09, 217.12 1.57 M174.78 47.16 C184.91 37.12, 196.45 24.6, 217.82 -0.09 M178.97 46.77 C196.99 29.68, 211.62 12.67, 223.5 1.92 M180.96 47.35 C193.91 31.8, 208.88 16.74, 221.83 -0.03 M186.31 49.6 C196.27 34.16, 207.19 24.44, 226.77 -0.39 M185.72 47.94 C194.53 36.98, 205.05 27.19, 228.74 -0.21 M189.51 47.63 C200.8 37.08, 209.77 25.57, 232.08 1.95 M190.99 48.96 C206.23 28.86, 224.02 11.28, 233.98 0.85 M194.52 50.59 C213.41 30.18, 228.41 13.72, 239.02 0.94 M195.63 48.83 C210.85 31.77, 223.52 15.51, 237.52 1.31 M202.93 47.67 C213.78 34.13, 228.87 16.61, 243.85 -1.59 M201.5 48.09 C214.87 33.56, 229.54 17.11, 244.31 0.33 M206.85 48.37 C221.01 33.13, 235.39 14.94, 247.71 1.05 M206.55 49.59 C215.34 37.84, 223.97 27.84, 249.76 -0.54 M212.38 49.28 C223.13 36.13, 237.26 21.75, 253.43 -2.04 M211.5 47.53 C225.56 32.65, 239.37 18.04, 254.68 -0.56 M218.55 46.94 C228.6 33.47, 241.46 21.26, 258.42 -0.52 M217.02 47.59 C227.55 37.7, 236.39 26.25, 259.5 -0.66 M224.73 48.61 C234.27 32.63, 247.16 21.74, 264.17 -2 M222.36 47.97 C232.27 37.81, 240.03 28.5, 265.87 0.6 M229.6 49.1 C236.94 37.6, 245.53 28.31, 269.11 -1.21 M228.51 49.54 C238.21 38.43, 247.94 26.96, 270.84 0.18 M234.56 49.59 C243.6 38.82, 249.76 29, 274.13 0.76 M232.86 48.92 C245.1 36.68, 255.84 24.72, 276.53 0.58 M238.7 50.44 C247.9 39.78, 258.53 27.86, 279.45 -0.67 M238.35 48.54 C252.4 32.97, 267.71 16.29, 280.25 1.04 M246.18 49.96 C256.48 33.6, 270.54 15.87, 286.11 -0.79 M244.16 47.76 C260.42 30.49, 275.74 12.17, 286.2 -0.49 M249.24 49.31 C259.06 36.23, 268.97 24.77, 291.53 2.73 M248.8 49 C263.14 32.34, 276.51 17.28, 290.29 1.36 M255.6 47.22 C268.99 33.7, 282.51 19.35, 290.38 7.42 M254.82 48.76 C266.4 37.02, 276.75 24.29, 289.12 8.17 M259.37 48.87 C269.78 37.11, 282.79 21.88, 290.6 11.96 M259.96 47.75 C270.24 36.55, 281.09 23.06, 289.33 14 M264.56 48.64 C272.67 39.59, 284.09 28.26, 289.13 21.41 M265.79 48 C270.62 42.36, 277.87 34.47, 289.54 19.88 M271.93 47.02 C276.44 40.75, 284.68 33.48, 290.66 26.15 M270.87 48.93 C277.54 39.75, 285.02 32.16, 290.23 25.04 M274.52 49.3 C279.52 46.2, 283.96 39.37, 290.55 30.75 M275.4 48.45 C281.89 43.41, 285.62 37.7, 290.97 33.08 M280.76 47.15 C282.28 45.37, 286.48 42.66, 289.67 37.89 M280.71 48.83 C283.45 45.44, 285.81 43.22, 290.16 38.03 M287.33 47.5 C287.67 46.93, 288.4 45.73, 289.71 44.05 M286.76 48.23 C287.84 46.78, 289.24 45.52, 290.26 43.99" stroke="#a5d8ff" stroke-width="0.5" fill="none"></path><path d="M0.41 -1.02 C114.28 -0.25, 225.84 0.12, 288.68 0.71 M-0.39 -0.19 C60.89 0.01, 120.55 0.49, 288.39 0.36 M287.21 1.56 C286.6 18.11, 287.32 35.97, 289.27 48.35 M288.04 0.76 C289.02 11.07, 288.48 21.12, 287.23 48.31 M288.94 49.19 C187.19 49.38, 84.83 49.57, -1.06 47.72 M287.58 48.63 C228.52 48.05, 170.7 49.1, -0.35 48.7 M-0.59 48.85 C0.91 36.04, 1.69 23.97, 1.66 -0.89 M-0.46 47.98 C0.83 28.42, 0.05 10.08, -0.77 0.52" stroke="#1971c2" stroke-width="1" fill="none"></path></g><g transform="translate(256.1716884635389 399.19921875) rotate(0 97.734375 12.5)"><text x="97.734375" y="0" font-family="Virgil, Segoe UI Emoji" font-size="20px" fill="#1971c2" text-anchor="middle" style="white-space: pre;" direction="ltr" dominant-baseline="text-before-edge">未初始化的数据(.bbs)</text></g><g stroke-linecap="round" transform="translate(210.74981346353889 303.40234375) rotate(0 144 40)"><path d="M0 0 C0 0, 0 0, 0 0 M0 0 C0 0, 0 0, 0 0 M-0.18 6.6 C1.35 3.76, 3.39 3.46, 4.9 0.45 M0.12 6.57 C1.75 4.55, 3.67 2.17, 4.97 0.25 M-0.26 12.8 C2.42 7.79, 4.93 6.64, 9.2 0.14 M0.56 12.57 C3.79 7.47, 8.7 1.99, 10.26 0.07 M1.72 19.42 C5.23 11.98, 13.11 3.73, 14.51 -1.04 M-0.7 18.64 C3.27 14.2, 6.58 11.51, 15.59 1.1 M1.64 25.12 C8.47 13.96, 16.17 8.14, 21.2 1.2 M-0.53 24.06 C5.47 17.35, 10.24 13.45, 21.44 -0.71 M-0.85 31.23 C8.23 23.86, 13.48 17.21, 27.89 -0.95 M-0.57 31.16 C6.33 22.84, 12.21 14.65, 27.1 1.29 M1.59 37.96 C8.4 24.7, 18.58 12.49, 31.16 -1.29 M-0.54 37 C5.94 29.16, 12.58 21.46, 31.56 0.5 M-1.18 43.09 C8.99 31.39, 21.63 20, 38.77 0.59 M1.04 42.21 C11.5 28.94, 22.47 17.97, 36.17 0.57 M0.03 50.38 C14.98 33.79, 28.15 19.26, 43.71 1.55 M-1.05 48.65 C11.97 36.21, 23.07 21.91, 43.04 -0.26 M-0.88 56.49 C8.73 42.01, 20.24 32.06, 45.79 -0.96 M0.95 54.51 C12.99 41.34, 25.27 27.12, 47.85 0.3 M0.32 59.21 C19.52 39.52, 33.76 21.79, 53.65 1.31 M0.64 61.78 C16.7 42.99, 31.38 25.17, 52.22 -1.07 M-0.45 68.36 C21.82 40.74, 45.15 15.08, 58.37 -0.42 M-0.85 67.39 C13.71 51.01, 28.38 35.11, 58.55 0.19 M1.28 74.24 C20.6 47.52, 45.33 23.24, 63.52 -1.75 M-0.74 72.82 C15.8 55.99, 29.98 39.05, 64.33 -1.14 M1.36 78.1 C17.83 59.61, 37.42 34.57, 70.72 -0.91 M0.5 78.83 C28.12 48.29, 54.49 18.17, 69.03 -0.62 M1.09 81.99 C19.17 62.3, 36.32 45.9, 73.69 -0.6 M2.5 82.54 C25.57 55.69, 48.31 30.64, 74.42 0.22 M9.49 81.06 C22.57 63.6, 40.81 43.96, 79.83 0.21 M7.58 81.91 C30.75 54.25, 53.66 27.6, 79.43 -0.65 M15.38 83.66 C29.87 65.4, 43.46 43.55, 84.28 0.46 M14.07 81.11 C33.64 59.88, 53.3 36.71, 84.45 0.59 M20.19 83.6 C37.88 60.66, 57.67 34.42, 91.47 1.25 M19.4 82.94 C37.21 61.32, 55.99 38.69, 90.22 1.03 M23.4 83.26 C46.77 59.03, 64.12 36.08, 97.19 -0.1 M24.88 81.18 C46.92 57.34, 67.12 32.11, 96.18 -0.57 M30.12 83.83 C54.01 53.73, 79.9 24.96, 102.18 -1.73 M29.44 83.08 C50.84 59.76, 70.81 36.11, 101.27 -0.32 M34.44 82.22 C60.6 56.79, 83.9 27.75, 106.12 0.86 M34.43 83.46 C57.99 54.33, 83.78 25.99, 106.29 -0.88 M38.34 81.52 C56.28 60.89, 76.2 40.85, 109.29 -0.96 M40.67 81.39 C62.19 57.56, 83.06 34.33, 110.77 0.01 M44.51 83.44 C73.31 49.09, 99.87 18.55, 117.88 1.98 M44.57 81.83 C71.95 52.46, 98.17 22.21, 116.62 0.65 M49.71 83.19 C68.81 58.64, 88.25 38.91, 120.92 1.06 M49.89 82.81 C69.42 61.39, 86.14 40.63, 122.28 -0.93 M54.43 81.77 C71.14 64.61, 90.41 43.88, 125.04 0.36 M54.51 82.8 C75.09 60.33, 93.93 38.56, 127.85 -0.34 M60.85 84.05 C87.31 49.27, 117.42 16.5, 133.96 1.53 M60.8 83.16 C84.57 54.9, 109.35 25.23, 131.74 -0.67 M66.48 83.05 C92.2 53.03, 116.91 21.68, 135.98 2.06 M66.48 83.51 C80.51 66.14, 96.13 49.29, 136.56 -0.06 M70.17 82.05 C89.09 60.45, 107.65 39.26, 144.08 -0.62 M70.94 82.16 C86.38 64.86, 102.67 47.02, 142.42 -0.35 M77.7 82.84 C91.45 62.8, 112.36 40.85, 147.5 1.12 M76.09 83.51 C96.31 62.07, 115.25 38.91, 148.83 -0.6 M83.85 83.85 C101.85 59.66, 120.89 37.15, 155.75 1.25 M82.71 82.43 C103.78 56.26, 125.18 31.68, 153.98 0.26 M85.93 84.41 C104.64 62.95, 120.84 46.99, 158.21 -1.7 M87.29 81.73 C114.39 52.53, 140.59 20.88, 158.62 -0.13 M93.88 82.84 C121.22 48.9, 148 17.57, 164.18 -0.49 M92.37 82.47 C116.7 54.83, 142.62 25.63, 165.41 -0.2 M99.78 80.74 C116.44 61.34, 136.81 39.56, 170.48 -0.94 M97.4 81.48 C125.48 49.61, 152.35 16.87, 168.73 0.04 M103.99 81.1 C117.78 64.7, 132.59 49.64, 173.42 -1.76 M103.04 81.67 C122.35 60.7, 142.05 37.62, 174.07 0.3 M108.65 80.54 C135.35 52.18, 163.64 22.37, 180.47 -0.39 M108.08 81.49 C123.35 63.17, 141.11 44.58, 179.83 0.51 M115.74 83.46 C133.44 57.51, 154.71 36.15, 186.25 -0.76 M113.7 81.31 C133.49 59.06, 153.23 37.2, 186.69 0.17 M120.69 82.25 C143.47 49.81, 170.01 21.88, 192.12 0.86 M118.38 82.85 C141.83 55.97, 164.56 29.78, 191.44 0.78 M126.42 83.45 C147.53 53.52, 172.99 23.74, 198.25 0.05 M124.19 81.56 C150.89 51, 177.35 20.64, 196.34 -0.78 M128.88 84 C155.32 51.31, 180.51 24.84, 203.16 -1.57 M129.68 82.05 C155.66 54.33, 179.37 25.93, 200.95 0.2 M135.14 81.34 C160.08 53.17, 186.67 22.9, 207.79 -0.12 M136.2 82.49 C153.24 61.72, 169.78 41.42, 207.48 -0.37 M140.94 81.67 C158.36 63.29, 172.31 46.12, 211.08 0.68 M140.74 81.99 C164.28 54.53, 187.65 25.98, 212.61 1.05 M144.77 82.09 C175.09 47.58, 199.68 16.58, 218 -2.29 M146.29 81.05 C173.77 50.88, 199.39 20.1, 216.89 -0.99 M149.41 82.83 C176.19 53.57, 200.5 26.79, 223.16 -1.33 M150.68 82.94 C174.89 54.28, 200.59 24.68, 222.52 -0.5 M155.33 82.15 C184.28 50.32, 211.19 20.42, 226.82 -1.79 M156.23 82.84 C180.7 54.17, 203.56 27.39, 228.73 -0.68 M161.56 80.79 C177.74 61.94, 198.24 39.92, 234.49 0.19 M161.95 81.55 C189.49 49.88, 216.3 17.82, 233.64 0.57 M168.55 84.42 C194.89 49.65, 223.58 15.72, 236.3 -1.46 M166.6 82.09 C184.49 61.79, 203.72 38.61, 238.88 0.7 M173.5 80.57 C185.64 67.83, 200.51 50.73, 241.89 -0.26 M171.41 81.89 C193.53 58.68, 213.34 35.02, 244.79 -0.78 M178 80.8 C202.29 56.69, 224.14 27.37, 249.22 -0.71 M177.89 83.18 C193.58 64.63, 209.1 46.87, 248.51 -0.61 M184.07 80.91 C201.12 62.42, 216.53 42.85, 254 0.55 M183.22 82.41 C198.24 63.38, 214.8 44.83, 253.66 -0.72 M189.69 83.12 C204.27 65.3, 218.33 46.01, 259.21 -0.95 M188.08 82.63 C205.16 62.46, 222.57 43.55, 259.21 -0.71 M192.92 80.26 C212.28 59.78, 233.27 37.14, 265.23 0.57 M193.95 82.93 C207.59 65.76, 223.48 47.65, 265.79 0.46 M199.4 81.96 C221.74 54.16, 246.82 28.39, 271.32 1.39 M199.02 82.84 C217.24 63.57, 234.59 42.95, 270.57 -0.06 M202.47 82.81 C231.11 50.24, 257.85 20.46, 273.76 -1.56 M203.5 81.7 C218.35 64.16, 233.15 48.91, 275.58 -0.63 M210.7 80.6 C226.57 58.42, 248.78 39.36, 279.36 1.56 M209.45 83.11 C234.42 54.96, 258.21 26.02, 280.56 0.29 M215.94 80.45 C242.42 51.17, 270.78 21.54, 287.57 -0.44 M214.14 82.32 C229.4 65.8, 244.98 49.24, 287.3 0.52 M220.93 81.05 C241.03 59.29, 257.86 34.94, 290.66 2.07 M219.92 82.63 C243.86 54.84, 266.91 28.48, 289.17 1.15 M227.31 82.8 C240.35 65.04, 252.54 49.75, 291.19 6.33 M225.5 82.81 C247.85 56.92, 270.3 31.22, 288.83 7.6 M231.21 82.03 C252.4 57.59, 270.21 36.48, 290.71 12.68 M229.87 81.48 C242.26 66.72, 254.9 52.23, 290.21 14.29 M235.34 83.18 C255.07 58.38, 277.16 35.92, 290.09 19.03 M235.57 82.56 C257 58.45, 278.31 33.85, 289.11 19.36 M240.47 80.98 C253.46 65.88, 266.75 50.44, 288.89 25.25 M240.59 81.63 C253.38 66.46, 266.28 53.37, 289.89 26.26 M245.58 80.65 C260.07 68.29, 273.45 51.44, 288.88 31.42 M247.69 81.37 C258.98 68.84, 268.99 55.43, 289.25 32.2 M251.38 84.08 C262.58 72.11, 271.16 62.71, 289.49 38.7 M252.23 81.94 C264.56 66.95, 278.19 52.18, 288.95 38.3 M256.37 81.99 C265.55 70.53, 277.09 60.56, 290.63 43.77 M257.56 82.42 C267.33 69.27, 277.64 58.45, 290.94 44.19 M260.42 84.19 C271.35 71.93, 282.38 57.58, 289.56 51.36 M262.81 83.17 C269.18 74.79, 275.47 66.55, 289.46 49.78 M268.16 84.43 C274.05 75.12, 280.16 65.17, 290.24 57.05 M267.61 82.03 C272.02 76.33, 277.16 71.98, 290.75 56.29 M271.84 82.91 C277.3 78.01, 280.66 71.98, 288.96 63.57 M273.19 82.94 C277.6 77.04, 282.14 71.69, 289.87 61.74 M276.34 82.68 C282.86 77.27, 284.47 73.04, 291.51 67.83 M278.49 81.75 C281.16 78.68, 285.07 73.82, 290.37 68.18 M283.65 81.41 C284.19 80.42, 287.39 79.24, 290.59 75.67 M283.86 82.52 C284.72 79.89, 286.92 78.93, 290.42 74.76" stroke="#eaddd7" stroke-width="0.5" fill="none"></path><path d="M-0.85 -1.06 C60.18 -1.53, 121.59 -2.42, 288.95 -1.29 M-0.07 -0.61 C68.42 -0.95, 137.65 -1.78, 288.53 -0.18 M288.39 -1.97 C288.11 25.08, 289.01 49.7, 288.91 80.14 M287.15 0.27 C286.88 23.62, 287.04 45.89, 287.59 80.23 M286.9 81.35 C214.14 76.84, 141.42 77.76, 0.32 81.34 M288.37 80.7 C219.99 78.45, 152.33 78.61, 0.11 79.34 M1.4 81.3 C-1.62 56.61, -0.76 32.96, 1.22 1.49 M-0.05 79.47 C0.2 54.17, -0.46 29.46, -0.51 0.26" stroke="#f08c00" stroke-width="1" fill="none"></path></g><g transform="translate(282.5818447135389 318.40234375) rotate(0 72.16796875 25)"><text x="72.16796875" y="0" font-family="Virgil, Segoe UI Emoji" font-size="20px" fill="#f08c00" text-anchor="middle" style="white-space: pre;" direction="ltr" dominant-baseline="text-before-edge">运行时堆</text><text x="72.16796875" y="25" font-family="Virgil, Segoe UI Emoji" font-size="20px" fill="#f08c00" text-anchor="middle" style="white-space: pre;" direction="ltr" dominant-baseline="text-before-edge">(通过malloc分配)</text></g><g stroke-linecap="round" transform="translate(210.15996971353889 248.828125) rotate(0 144 24)"><path d="M0 0 C0 0, 0 0, 0 0 M0 0 C0 0, 0 0, 0 0 M-0.16 7.14 C1.63 5.39, 2.87 3.1, 4.32 0.06 M-0.1 6.61 C1.18 4.47, 3.41 2.61, 4.69 0.12 M1.06 13.38 C5.21 6.32, 9.85 1.32, 9.83 1.12 M-0.03 12.75 C4.41 7.72, 8 3.43, 10.06 0.12 M-1.01 17.68 C7.41 12.9, 12.59 2.66, 16.47 1.85 M-1.04 19.15 C3.98 13.7, 9.34 6.58, 15.06 0.84 M-1.42 25.05 C7.42 17.29, 11.29 11.51, 20.92 1.45 M0.06 24.38 C5.49 19.86, 10.06 14.22, 22.13 0.54 M-1.65 30.79 C6.36 24.26, 15.15 15.35, 26.54 0.11 M-0.96 30.78 C10.11 18.95, 18.43 8.92, 26.26 0.28 M0.16 35.44 C7.07 26.16, 15.63 18.62, 32.83 -2.1 M0.7 37.77 C6.96 28.57, 16.03 19.17, 32.88 -0.63 M-0.35 42.26 C11.57 30.41, 19.79 16.73, 36.11 1.87 M-0.71 42.33 C13.03 27.31, 27.04 11.36, 35.89 0.6 M-0.84 47.47 C15.39 31.67, 26.27 16.02, 43.03 -1.14 M0.56 47.65 C16.17 31.77, 30.82 12.98, 43.28 0.22 M6.43 47.56 C13.78 37.21, 24.89 29.72, 47.44 -1.64 M4.77 47.64 C18.49 34.45, 30.33 19.44, 47.36 1.16 M11.02 47.94 C22.31 35.21, 29.48 26.07, 51.89 1.24 M10.28 47.89 C27.81 28.94, 43.25 10.72, 52.33 -0.98 M15.68 48.94 C26.36 37.61, 35.91 24.95, 56.52 -1.37 M15.16 48.95 C33.8 29.67, 49.17 11.64, 58.51 -0.79 M22.51 46.59 C32.9 34.3, 44.3 21.28, 64.52 0.7 M22.54 47.37 C33.68 34.31, 45.77 22.29, 63.93 -0.96 M27.89 49.5 C38.87 33.13, 50.51 23.6, 67.05 -0.51 M25.79 47.89 C42.28 32.6, 56.56 15.85, 68.54 0.82 M33.95 49.61 C43.28 38.99, 49.95 29.15, 72.73 1.7 M33.22 48.48 C48.19 30.44, 62.71 12.61, 73.84 -0.07 M35.49 47.07 C53.88 32.86, 64.6 16.51, 80.48 -0.47 M37.14 48.43 C44.8 38.94, 54.66 28.62, 79.05 -0.06 M43.41 48.97 C54.39 35.86, 63.84 21.93, 85.05 -0.53 M42.62 47.47 C55.1 33.51, 67.28 21.2, 84.75 0.69 M47.66 50.25 C58.94 33.83, 73.31 21.22, 89.93 1.13 M48.56 47.87 C56.82 36.52, 67.65 23.72, 89.05 -0.61 M52.66 48.43 C65.08 34, 77.18 20.38, 96.76 -1.96 M54.42 47.48 C62.75 36.94, 73.34 27.04, 95.22 -1.31 M60.26 48.45 C71.11 31.44, 88.55 16.28, 102.28 0.46 M59.31 47.89 C69.53 34.16, 81.43 22.84, 99.91 -0.18 M64.52 50.26 C79.42 30.89, 91.59 15.27, 107.81 0.2 M64.04 48.22 C74.72 34.83, 86.9 21.6, 106.71 0.65 M69.9 49.83 C83.07 29.83, 95.67 13.4, 112.11 1.45 M69.53 47.52 C83.81 31.95, 97 16.01, 110.41 0.77 M75.52 50.28 C90.78 29.03, 105.47 11.78, 116.25 2.3 M74.25 48.05 C86.74 33.38, 99.9 18.08, 115.9 0.39 M79.89 47.36 C91.67 36.37, 99.04 23.82, 123.73 1.82 M79.24 48.16 C88.51 38.81, 97.75 27.4, 121.71 -0.38 M85.92 48.33 C97.04 32.64, 111.55 18.79, 126.79 1.17 M84.25 49.39 C98.67 34, 110.61 18.04, 126.35 0.86 M90.28 48.76 C102.56 35.86, 114.83 19.63, 133.14 -0.92 M91.38 48.56 C103.93 32.14, 118.73 15.37, 132.37 0.61 M96.39 47.3 C112.01 30.62, 126.77 7.94, 136.92 0.72 M95.27 48.82 C102.78 39.52, 111.9 28.42, 137.51 -0.4 M99.82 46.55 C111.39 37.91, 118.92 27.04, 142.1 0.5 M100.75 47.83 C111.32 35.97, 121.14 25.21, 143.34 -0.15 M105.27 47.85 C115.62 37.53, 125.75 24.77, 149.48 -1.12 M106.97 48.75 C115.83 38.21, 124.8 26.14, 148.42 0.79 M111.98 48.05 C121.9 33.62, 134.67 23.51, 152.07 1.16 M111.07 48.44 C123.68 33.46, 136.54 17.45, 152.95 0.31 M118.66 50.4 C133.16 30.76, 146.81 13.7, 158.04 -1.66 M116.35 48.46 C125.23 37.58, 135.13 27.8, 157.97 0.92 M120.95 49.31 C135.3 30.94, 152.96 14.96, 166.21 -2.1 M121.92 47.22 C134.32 34.77, 146.41 20.15, 163.94 0.8 M128.35 49.19 C135.01 39.06, 147.91 26.36, 168.89 0.6 M126.84 49.08 C138.84 36.78, 148.62 24.36, 169.96 -0.11 M133.65 49.22 C140.76 39.4, 150.9 27.67, 175.42 -0.66 M133.79 48.38 C147.6 31.65, 161.09 16.47, 174.41 -1 M137.87 50.22 C148.92 38.21, 158.7 25.43, 179.03 -0.07 M137.23 48.6 C148.44 36.81, 157.49 25.49, 180.09 -0.08 M143.7 47.41 C150.39 37.91, 160.13 30.25, 184.33 -0.1 M143.06 48.44 C158.95 31.22, 172.41 16.14, 184.88 0.47 M148.45 49.27 C162.99 31.18, 176.93 15.69, 190.19 1.37 M148.74 48.89 C164.28 32.36, 179.9 15.19, 190.93 0.62 M153.47 46.3 C165.94 34.96, 175.8 21.35, 197.25 -2.23 M154.99 47.33 C164.01 36.35, 173.4 25.44, 197.25 -0.4 M161.07 49.9 C168.16 34.59, 179.15 25.53, 202.81 -1.25 M159.94 48.65 C175.18 31.3, 190.71 13.18, 200.95 -0.05 M164 49.1 C175.84 33.59, 190.2 20.09, 208.26 0.92 M164.75 47.3 C177.71 33.75, 190.01 20.75, 207.81 0.64 M170.38 49.46 C184.17 31.98, 200.82 11.19, 210.05 0.69 M169.81 48.45 C183.37 33.5, 195.67 17.84, 211.51 -0.8 M177.1 49.8 C187 36.59, 196.7 22.45, 219.11 1.09 M176.37 48 C185.04 37.75, 194.04 27.79, 218.24 -1.27 M178.79 49.08 C190.51 37.53, 199.9 22.5, 223.79 0.58 M180.72 47.74 C190.46 35.55, 200.85 23.47, 221.87 0.07 M184.6 47.92 C201.5 29.62, 215.32 13.64, 229.29 -0.17 M185.15 48.16 C196.1 36.24, 206.59 24.34, 228.61 -1.16 M190.41 47.67 C199.28 36.3, 209.12 25.11, 232.63 -1.41 M191.43 47.79 C202.15 34.5, 213.52 21.19, 234.16 -0.41 M197.05 47.5 C209.52 32.38, 226.74 16.09, 237.37 -0.8 M195.22 49.61 C206.78 36.7, 218.1 22.51, 237.73 -0.43 M201.08 47.92 C216.67 35.85, 227.2 21.17, 243.88 -0.33 M202.09 48.77 C214.07 32.98, 227.35 18.49, 244.43 -0.86 M205.74 47.63 C218.35 33.95, 229.31 22.61, 249.57 0.79 M206.65 48.82 C218.92 34.95, 229.13 21.62, 248.76 1.09 M212.35 46.3 C226.5 32.46, 238.68 18.71, 253.6 -0.42 M213.24 48.69 C227.83 32.39, 241.15 16.03, 253.58 -0.52 M219.32 49.41 C228.35 37.97, 236.22 26.78, 257.89 0.23 M217.05 48.85 C231.47 31.7, 245.74 15.38, 260.29 0.73 M221.49 47.05 C236.71 33.57, 249.33 18, 264.52 -1.18 M222.81 48.4 C238.53 31.72, 252.1 15.21, 264.44 -0.27 M229.17 46.74 C236.88 39.87, 244.3 27.59, 268.69 2.18 M227.92 49.13 C236.77 36.84, 247.93 25.76, 269.95 0.9 M235.49 48.22 C241.03 36.99, 250.85 30.85, 276.13 0.69 M233.12 48.65 C251.23 27.57, 266.46 9.4, 276.71 0.34 M239.4 48.3 C252.71 34.16, 264.46 16.28, 280.06 -0.92 M239.65 48.45 C255.42 30.54, 270.18 12.76, 280.77 0.88 M245.06 47.63 C259.72 30.71, 275.03 14.63, 286.61 1.27 M243.89 49.02 C259.98 30.95, 273.97 15.24, 285.98 0.17 M248.82 47.54 C264.54 33.56, 277.09 18.39, 290.48 2.67 M248.52 47.93 C262.6 32.63, 276.31 16.79, 290.85 1.31 M254.62 48.85 C268.89 34.04, 281.75 19.25, 291.67 7.73 M255.21 48.95 C266.04 35.5, 276.8 23.3, 289.53 7.69 M260.97 48.69 C267.78 37.76, 278.29 24.31, 291.61 11.99 M259.72 48.1 C268.4 39.54, 277.69 28.51, 291.13 13.25 M264.32 47.28 C270.41 40.38, 276.47 32.95, 288.87 19.18 M266.58 48.76 C271.14 40.13, 276.89 34.79, 289.66 20.93 M270.1 48.78 C277.09 41.82, 280.7 37.78, 289.87 24.27 M270.29 47.8 C276.83 39.71, 285 31.13, 289.98 25.97 M276.03 48.08 C279.75 45.81, 281.7 38.77, 291.83 30.28 M275.89 48.62 C280.89 42.69, 285.75 37.19, 290.93 32.02 M282.51 47.88 C284.07 43.86, 286.92 40.63, 289.63 39.39 M281.86 48.96 C284 45.62, 286.39 41.27, 289.49 38.82 M287 48.03 C287.98 46.57, 288.81 45.31, 290.04 44.22 M286.77 47.88 C288.05 46.46, 289.6 44.94, 290.25 43.97" stroke="#eaddd7" stroke-width="0.5" fill="none"></path><path d="M0.99 -0.15 C61.36 0.26, 120.59 1.2, 287.19 0.18 M-0.42 -0.45 C77.64 -1.28, 154.96 -0.9, 288.01 0.31 M288.96 1.13 C289.44 13.3, 288.01 30.74, 288.51 47.74 M287.7 -0.89 C287.52 11.03, 287.97 20.73, 288.78 48.55 M287.65 49.12 C227.48 48.59, 170.26 49.11, -1.13 49.47 M287.53 48.46 C216.43 47.84, 145.45 47.27, 0.56 48.2 M-1.09 46.19 C0.35 37.93, -1.51 28.57, -0.07 -0.72 M-0.01 47.6 C0.47 34.35, -0.8 21.31, -0.22 0.01" stroke="#343a40" stroke-width="1" fill="none"></path></g><g transform="translate(304.1892665885389 260.328125) rotate(0 49.970703125 12.5)"><text x="49.970703125" y="0" font-family="Virgil, Segoe UI Emoji" font-size="20px" fill="#343a40" text-anchor="middle" style="white-space: pre;" direction="ltr" dominant-baseline="text-before-edge">待分配区域</text></g><g stroke-linecap="round" transform="translate(210.71465721353889 195.53125) rotate(0 144 24)"><path d="M0 0 C0 0, 0 0, 0 0 M0 0 C0 0, 0 0, 0 0 M0.48 5.74 C1.1 4.68, 2.54 3.17, 5.62 0.72 M0.12 6.16 C1.91 3.99, 3.34 1.63, 4.74 0.61 M0.52 12.83 C4.13 7.34, 6.8 1.65, 12.03 -1.49 M0.89 12.25 C4.34 8.09, 8.66 1.88, 10.34 -0.32 M-0.25 17.73 C6.15 10.51, 12.77 5.39, 15.08 -1.45 M-0.14 17.67 C4.35 14.34, 7.92 8.55, 15.36 -0.27 M0.57 22.3 C8.45 16.83, 14.16 5.2, 22.11 -0.71 M1.24 24.96 C8.7 16.45, 14.9 8.04, 20.39 -0.47 M1.72 31.96 C8.72 21.28, 17.09 10.35, 27.62 0.29 M0.3 30.8 C7.85 20.59, 16.68 10.42, 26.63 -0.44 M1.65 37.3 C5.31 29.69, 14.79 20.84, 29.95 1.37 M-1.03 37.13 C9.53 26.12, 17.73 15.73, 31.52 0.81 M0.87 43.33 C12.53 26.6, 26.75 11.41, 36.54 1.12 M0.5 41.63 C11.54 31.05, 21.15 19.4, 36.84 -0.13 M-1.2 47.8 C12.29 35.93, 23.45 22.45, 41.38 1.67 M-0.45 48.28 C14.92 30.18, 29.29 13.18, 42.36 -1.08 M4.55 48.48 C19.99 31.21, 36.88 12.24, 45.94 -0.49 M5.12 47.91 C16.07 37.41, 24.75 24.7, 48 0.94 M9.27 47.81 C21.4 38.3, 31.88 26.11, 52.6 -1.72 M10.22 47.17 C23.82 33.74, 36.99 17.17, 53.5 -0.31 M17.57 46.87 C25.82 35.21, 38.56 24.43, 57.61 -0.35 M15.42 47.78 C25.96 36.43, 36.78 26.21, 58.53 0.9 M21.64 46.24 C34.59 28.92, 51.99 15.26, 64.51 0.06 M22.24 47.59 C30 38.12, 38.4 28.94, 64.42 0.31 M28.23 46.78 C43.67 27.99, 59.13 12.45, 69.07 1.57 M26.33 48.78 C42.8 29.98, 59.46 10.74, 68.24 0.76 M34.06 48.46 C47.12 29.56, 66.41 13.09, 72.75 0.65 M32.11 48.84 C43.02 35.96, 53.39 23.77, 74.51 0.32 M36.78 47.2 C48.71 36.11, 58.42 24.73, 79.57 -0.96 M37.93 48.77 C50.58 32.05, 63.87 17.91, 79.33 -0.64 M42.39 49.64 C53.67 34.52, 66.18 21.2, 85.66 0.48 M42.72 48.09 C57.72 30.5, 71.46 15.23, 86.03 0.64 M48.2 49.96 C61.55 28.94, 78.31 13.31, 88.07 1.62 M47.16 48.98 C59.73 33.98, 71.75 20.44, 89.37 0.42 M54.22 48.71 C62.12 38.15, 72.66 26.25, 94.31 0.75 M54.32 47.35 C71.19 28.89, 87.22 9.95, 95.14 0.54 M58.17 49.63 C74.89 29.69, 93.65 8.63, 99.24 0.67 M58.86 48.98 C69.72 34.21, 82.3 21.45, 100.35 -0.49 M62.19 47.16 C76.57 35.18, 87.77 20.24, 106.49 1.45 M62.95 49.28 C79.31 29.55, 95.44 11.91, 106.88 0.64 M71.11 47.57 C79.35 35.82, 88.21 22.9, 109.47 -0.7 M68.77 47.71 C85.23 30.67, 98.92 14.25, 111.63 -0.93 M72.63 47.97 C92.65 29.46, 108.48 9.6, 116.06 0.1 M73.95 49.11 C85.17 36.17, 96.07 24.68, 115.54 0.68 M78.14 49.92 C95.34 31.87, 107.21 16.29, 120.88 -1.56 M80.53 48.48 C92.11 34.09, 104.62 20.27, 120.98 -0.62 M83.63 50.19 C100.36 30.49, 115.92 12.52, 127.53 -1.26 M85.13 48.19 C96.92 34.45, 109.03 18.83, 126.26 -0.5 M91.13 49.6 C106.21 30.42, 119.84 12.84, 131.31 -1.24 M90.64 47.95 C101.16 35.34, 113.14 22.48, 131.55 -0.4 M93.65 47.87 C105.24 38.24, 114.67 25.3, 138.21 -1.54 M96.33 47.99 C109.83 33.06, 122.55 17.51, 138.1 0.57 M100.63 48.34 C113.81 33.62, 129.06 16.72, 144.31 -1.25 M101.52 49.12 C112.32 37.28, 121.77 25.1, 142.87 0.73 M106.87 48.87 C121.98 29.84, 139.99 9.38, 146.75 -1.64 M105.75 47.84 C116.62 35.17, 129.62 22.46, 147.68 -0.05 M109.94 46.6 C123.44 33.86, 139.86 15.49, 155.15 0.64 M112.45 48.39 C120.69 38.21, 127.99 28.56, 153.88 0.66 M115.17 48.8 C128.05 37.05, 140.68 23.82, 158.54 -1.65 M117.04 47.91 C127.59 37.34, 138.15 26.32, 159.49 0.05 M121.05 49.66 C135.04 31.57, 146.39 18.7, 164.81 0.49 M122.64 48.48 C132.27 35.93, 143.38 22.76, 163.89 -0.9 M128.18 49.09 C140.99 30.57, 156.14 17.85, 167.66 1.1 M128.19 48.25 C137.85 37.1, 147.57 24.72, 168.93 0.67 M132.7 49.57 C146.08 30.29, 162.9 16.08, 174.01 -1.91 M132.15 47.49 C146.95 30.53, 162.01 14.24, 175.63 0.64 M139.23 46.92 C151.45 33.22, 166.04 18.15, 178.95 2.05 M138.61 47.76 C148.74 36.73, 158.41 25.18, 179.28 -0.04 M142.32 47.15 C158.75 28.73, 174.85 10.53, 185.18 -0.95 M142.97 47.89 C159.04 29.25, 177.19 10.35, 186.18 -0.26 M147.37 49.26 C165.11 32.38, 178.39 12.18, 189.94 -0.54 M148.08 49.19 C161.76 32.44, 174.51 17.56, 190.72 -0.6 M156.07 50.03 C164.22 38.37, 174.89 24.46, 196.45 0.74 M153.94 47.48 C166.08 33.95, 178.47 19.79, 196.06 -0.3 M159.37 46.87 C171.46 34.74, 184.97 20.74, 200.87 0.33 M159.8 48.18 C171.32 33.37, 185.13 19.44, 201.3 0.87 M166.85 46.59 C178.61 33.76, 188.27 20.29, 207.7 -1.67 M165.83 48.43 C176.93 34.01, 188.33 19.06, 206.13 -0.32 M171.72 48.27 C183.04 32.42, 193.94 18.23, 212.74 -1.54 M169.31 48.19 C185.24 30.1, 202.42 12.55, 211.98 -0.42 M176.24 48.01 C189.27 32.65, 200.92 17.79, 218.51 -1.25 M176.27 48.29 C188.81 33.05, 201.8 16.99, 216.68 -0.28 M180.63 49.78 C192.19 32.83, 205.23 20.39, 221.22 0.44 M179.6 47.57 C190.97 36.11, 200.29 26.02, 221.6 -0.88 M183.91 46.99 C194.21 39.78, 204.41 27.81, 230.18 -1.27 M186.14 47.7 C201.51 29.5, 219.98 10.88, 228.36 -0.31 M192.03 49.51 C206.87 27.94, 223.29 9.38, 234.74 -0.37 M192.02 48.52 C203.19 34.38, 216.17 19.84, 233.91 0.42 M196.2 48.77 C204.57 40.57, 213.89 29.97, 239.07 -0.48 M197.17 48.4 C212.53 31.01, 227.23 12.78, 238.59 1.11 M203.57 49.32 C215.95 34.7, 229.44 18.36, 244.41 -1.83 M201.3 48.08 C217.66 29.9, 234.31 12.18, 244.53 0.79 M208.22 49.62 C224.18 31.21, 240.52 11.64, 249.24 1.89 M207.03 48.77 C217.85 36.01, 229.16 21.78, 249.11 1.06 M210.6 48.87 C222.24 33.8, 236.28 20.44, 254.1 0.99 M212.58 49.19 C227.34 32.16, 241.26 16.04, 253.97 0.89 M216.44 47.83 C228.19 34.38, 239.65 21.46, 258.5 0.67 M216.91 47.76 C229.69 33.51, 243.99 17.77, 259.12 -0.24 M224.21 47.61 C234.83 35.58, 247.04 18.73, 266.37 1.79 M222.38 47.61 C233.83 35.7, 243.49 25.02, 264.64 -0.28 M228.06 50.49 C242.6 29.01, 262.04 9.73, 271 -0.3 M227.91 48.72 C241.17 33.53, 255.12 18.29, 270.83 0.53 M233.21 46.75 C241.62 36.77, 251.88 27.92, 276.5 1.05 M233.63 48.98 C243.84 33.87, 255.73 21.85, 275.85 -0.32 M238.97 47.47 C247.84 35.91, 257.55 26.09, 282.66 -1.39 M238.02 48.33 C249.13 37.04, 259.08 24.95, 279.87 -0.44 M246.11 47.31 C255.52 37.91, 263.13 27.55, 286.5 0.05 M244.62 47.8 C258.95 30.07, 274.07 14.17, 286.77 -0.5 M247.83 49.39 C262.67 34.38, 274.42 20.76, 289.78 0.32 M249.12 47.65 C258.93 36.09, 269.76 24.71, 290.93 2.4 M253.16 48.05 C268.01 34.59, 281.59 18.77, 287.88 7.14 M254.06 48.42 C265.21 34.06, 277.46 22.63, 290.27 7.57 M261.96 49.69 C265.4 38.4, 276.01 32, 289.81 15.07 M259.96 49.07 C269.14 36.43, 280.24 25.78, 289.54 13.01 M264.31 47.56 C274.46 39.96, 280.65 30.02, 290.01 18.62 M266.02 48.05 C275.44 36.64, 283.84 25.92, 290.26 19.83 M271.45 46.58 C279.38 40.8, 283.8 32.36, 291 27.27 M271.22 49.38 C275.85 43.44, 278.68 38.7, 290.67 25.57 M275.24 46.16 C280.6 44.39, 281.2 42.23, 290.35 30.32 M277 47.76 C278.94 44.97, 281.98 41, 290.88 32.31 M282.44 48.8 C283.34 46.01, 285.97 41.84, 290.87 39.78 M280.71 48.58 C282.99 46.03, 285.61 44.13, 289.18 38.51 M286.5 47.99 C287.4 47.62, 287.79 46.01, 290.07 43.82 M286.88 47.86 C288.21 46.75, 289.41 44.94, 290.35 44.46" stroke="#eaddd7" stroke-width="0.5" fill="none"></path><path d="M-0.34 1.14 C63.33 0.08, 124.71 -0.47, 288.91 0.69 M0.6 -0.34 C108.4 -0.36, 217.33 -0.66, 287.6 -0.33 M287.25 -1.43 C287.97 16.98, 289.04 31.68, 287.03 47.87 M287.11 0.71 C288.56 10.81, 289.45 19.87, 287.99 48.86 M288.6 48.16 C225.96 47.1, 166.32 48.93, 1.21 48.98 M287.39 48.51 C215.14 48.19, 142.69 47.84, 0.21 47.77 M0.95 47.56 C-1.6 30.86, 0.83 13.25, 1.08 -0.85 M0.56 48.81 C0.34 31.49, 0.75 17.1, -0.91 -0.67" stroke="#e03131" stroke-width="1" fill="none"></path></g><g transform="translate(254.71465721353889 207.03125) rotate(0 100 12.5)"><text x="100" y="0" font-family="Virgil, Segoe UI Emoji" font-size="20px" fill="#e03131" text-anchor="middle" style="white-space: pre;" direction="ltr" dominant-baseline="text-before-edge">文件映射与匿名映射区</text></g><g stroke-linecap="round" transform="translate(211.64043846353889 143.12109375) rotate(0 144 24)"><path d="M0 0 C0 0, 0 0, 0 0 M0 0 C0 0, 0 0, 0 0 M-0.26 5.78 C1.91 4.61, 3.46 1.62, 4.85 0.07 M-0.07 6.54 C1.92 3.85, 3.73 1.66, 4.94 0.29 M-0.75 12.63 C2.33 8.99, 8.12 3.33, 12.18 -0.09 M0.88 11.35 C2.76 8.99, 6.18 5.72, 11.05 -0.49 M-1.17 16.47 C6.14 10.57, 10.17 2.25, 14.23 0 M0.09 17.95 C2.99 14.39, 6.28 11.6, 14.79 -0.46 M-0.76 23.28 C4.73 19.33, 11.89 10.27, 19.26 0.92 M0.32 23.14 C8.07 15.38, 16.73 6.78, 21.47 -0.35 M-0.93 28.59 C3.88 22.63, 13.39 15.36, 25.8 0.98 M0.78 31.19 C6.86 21.39, 14.77 13.84, 26.52 0.03 M-1.23 35.42 C7.32 26.22, 16.48 17.36, 33.87 0.69 M0.5 36.8 C10.57 22.14, 22.5 9.71, 32.61 0.26 M-1.46 43.42 C11.03 28.22, 23.18 14.18, 38.39 1.54 M0.94 43.25 C11.83 27.87, 24.9 12.59, 37.84 0.41 M-0.73 47.27 C16.3 29.23, 31.74 11.61, 42.55 -1.19 M0.07 48.98 C15.48 30.05, 30.32 14.23, 43.44 -0.97 M5.27 47.91 C21.81 31.84, 34.39 15.09, 46.78 0.42 M5.37 48.21 C20.09 31.54, 35.6 13.85, 47.92 0.31 M12.67 49.17 C22.1 35.53, 30.34 23.54, 54.19 -0.32 M11.42 47.8 C21.54 37.01, 29.92 26.82, 52.72 0.14 M16.76 47.82 C30.24 32.98, 42.84 15.15, 59.47 2.17 M15.5 48.57 C33.04 28.48, 47.78 10.17, 58.35 -0.79 M22.23 46.32 C38.89 29.52, 52.04 11.76, 62.38 -1.53 M20.96 48.36 C36.48 31.38, 50.72 15.6, 64.08 -0.89 M26 49.74 C39.87 33.02, 55.6 14.85, 68.65 -0.92 M26.42 48.2 C43.1 29.7, 58.82 12.14, 68.07 -0.56 M32.79 48.44 C47.65 30.85, 59.5 16.26, 75.44 -0.86 M32.36 47.33 C41.98 36.13, 53.76 23.35, 75.05 -0.14 M37.93 47 C54.53 28.2, 68.78 9.38, 80.26 1.27 M38.34 49.32 C54.04 29.02, 70.86 9.2, 78.45 -0.79 M42.9 46.97 C52.66 36.63, 64.39 21.01, 86.41 0.41 M43.64 47.2 C50.93 39.4, 59.65 29.38, 84.07 -0.39 M46.2 47.72 C61.1 34.01, 71.81 19.96, 91.93 -1.39 M48.38 47.49 C62.57 33.04, 75.55 16.01, 90.23 -0.43 M54.83 49.19 C63.52 37.39, 72.03 27.78, 95.04 -2.18 M54.24 47.35 C64.21 36.37, 73.41 24.86, 95.44 0 M59.2 48.79 C67 37.01, 77.89 25.48, 99.05 -1.24 M59.54 48.64 C68.14 38.18, 76.52 26.98, 100.54 -0.57 M63.92 48.87 C73.5 35.51, 84.15 25.5, 105.81 -2.34 M63.32 47.76 C74.88 35.42, 87.2 22, 106.37 -0.01 M70.03 49.87 C76.65 39, 87.46 26.9, 112.68 1.15 M69.72 48.04 C82.89 31.8, 97.47 16.58, 111.91 0.58 M75.19 49.33 C86.53 38.92, 96.8 25.79, 117.26 -0.24 M73.42 49.02 C90.06 30.02, 105.81 12.39, 115.29 -0.33 M78.5 47.44 C87.19 36.8, 96.12 30.08, 121.63 -0.99 M80.68 47.34 C90.27 34.28, 103.04 22.83, 121.24 0.65 M85.41 49.9 C100.02 33.54, 113.43 14.97, 126.6 0.48 M85.46 47.82 C101.09 30.5, 117.62 12.98, 127.51 0.21 M89.15 48.71 C98.22 39.36, 108.58 30.17, 134.43 1.34 M91.11 47.55 C103.09 34.43, 113.44 20.02, 132.86 0.13 M95.72 48.98 C110.39 30.84, 123.8 15.72, 135.81 -0.79 M96.46 48.98 C105.17 37.48, 113.49 27.28, 138.24 -0.57 M101.25 49.72 C115.46 32.96, 130.5 15.89, 141.31 -1.07 M101.57 48.02 C116.32 31.06, 129.44 15.66, 143.45 -0.62 M104.99 46.72 C113.67 36.35, 122.39 26.43, 148.25 1.39 M105.79 49.15 C121.41 30.17, 138.24 12.29, 148.26 -0.28 M110.75 49.26 C127.26 30.51, 144.02 11.06, 152.23 -1.67 M111.51 47.48 C122.7 34.43, 134.19 21.13, 153.1 -0.38 M115.8 47.05 C127.08 33.95, 137.99 24.89, 157.98 1.21 M116.23 47.87 C129.35 34.67, 142.06 19.31, 158.22 -0.14 M124.35 46.92 C135.1 35.07, 143.25 21.92, 162.86 -0.09 M122.28 49.01 C133.23 37.13, 142.72 26.45, 164.29 -0.09 M128.46 47.71 C141.1 31.54, 156.4 15.75, 167.78 -0.34 M126.94 48.52 C139.11 34.23, 152.45 20.55, 169.66 -0.02 M133.47 49.04 C145.67 31.17, 158.94 17.98, 176.61 -0.23 M132.11 49.05 C148.25 30.72, 164.38 11.32, 174.89 0.18 M138.98 50.18 C148.67 37.02, 158.23 24.03, 179.16 -1.49 M138.48 49.35 C150.47 33.97, 162.6 18.55, 180.03 0.56 M144.24 46.79 C152.23 36.37, 161.65 28.68, 186.59 -0.16 M143.14 48.39 C154.26 36.54, 164.35 23.85, 185.16 0.23 M149.11 49.77 C159.92 35.69, 171 22.7, 190.35 -1.69 M147.79 48.46 C162.16 32.84, 173.85 18.07, 191.65 -0.54 M155.5 46.07 C166.6 33.48, 180.34 16.87, 197.63 -2.2 M154.37 47.21 C162.63 37.42, 173.21 27.73, 196.74 0.72 M160.3 49.52 C167.61 34.5, 180.43 26.02, 202.29 0.39 M159.22 48.81 C172.33 33.17, 183.83 18.38, 200.75 0.86 M164.83 49.6 C177.24 33.5, 189.88 20.5, 208.29 1.12 M164.72 48 C179.84 31.19, 195.13 14.91, 207.68 0.15 M171.74 50.3 C179.94 37.12, 192.58 22.89, 212.64 0.86 M169.49 49.23 C186.14 30.58, 202.27 12.44, 212.43 0.35 M174.5 46.87 C183.74 37.72, 191.69 29.62, 216.83 1.06 M175.98 48.66 C191.8 30.26, 207.87 12.01, 217.41 -0.12 M182.31 48.71 C196.91 29.53, 214.09 11.2, 221.78 0.61 M180.71 47.39 C196.75 29.42, 211.43 12.75, 221.7 -0.15 M184.87 48.89 C202.41 33.26, 214.96 16.09, 227.25 -1.36 M185.19 48.18 C202.22 29.02, 218.88 9.61, 227.74 -0.84 M192.63 47.18 C202.85 30.62, 219.65 16.58, 234.8 -0.67 M191.4 48.85 C201.36 36.21, 212.73 24.32, 232.45 0.63 M194.98 47.2 C211.88 30.31, 227.75 10.03, 238.59 -0.55 M196.23 48.64 C208.67 34.23, 219.06 22.24, 237.25 0.82 M203.04 47.9 C213.58 35.09, 224.99 23.89, 243.54 1.46 M201.46 48 C215.28 31.48, 229.4 16.06, 244.47 0.35 M208.61 48.4 C223.72 29.08, 235.66 12.61, 249.6 0.56 M206.93 48.75 C218.5 34.62, 230.21 20.96, 248.83 1.3 M211.59 46.83 C221.64 38.37, 230.69 27.84, 252.52 -1.76 M213.18 49.1 C222.36 38.26, 232.7 26.35, 254.41 0 M218.93 49.09 C229.63 32.56, 242.17 17.93, 260.77 1.11 M216.63 47.82 C229.23 36.49, 239.5 23.6, 258.83 0.16 M224.05 47.72 C231.38 35.86, 241.89 25.89, 265 1.69 M222.23 47.27 C238.36 30.64, 254.34 13.17, 264.86 -1.05 M229.8 46.67 C239.26 34.45, 247.34 24.5, 270.96 1.25 M228.6 49.54 C239.38 35.31, 248.58 24.84, 270.63 0.08 M231.9 48.12 C250.19 28.54, 263.3 12.56, 276.95 -1.39 M234.7 47.5 C243.03 37.98, 253.11 26.43, 275.25 -0.09 M237.84 49.31 C247.74 38.92, 255.39 26.4, 278.75 0.93 M238.98 48.94 C248.82 36.01, 261.43 21.58, 281 0.57 M246.36 49.33 C262.42 31.88, 276.55 10.86, 287.07 0.58 M244.04 47.62 C255.57 35.25, 268.17 20.5, 286.95 -0.02 M250.36 49.96 C257.58 37.64, 268.07 27.49, 291.14 3.38 M249.79 49.4 C262.38 33.19, 275.42 18.44, 289.81 2.53 M256.36 46.45 C269.5 31.41, 282.83 17.39, 291.54 6.26 M254.1 47.32 C265.45 36.09, 276.35 23.87, 288.96 7.89 M259.4 48.37 C265.45 41.48, 274.39 33.66, 288.27 15.16 M259.96 47.69 C271.16 34.75, 284.11 19.62, 289.73 13.27 M266.53 46.37 C269.93 41.72, 279.31 35.76, 288.45 18.27 M266.13 47.17 C270.01 43.04, 276.4 35.96, 289.35 19.91 M271.71 49.05 C273.1 41.81, 278.71 36.91, 289.07 24.98 M270.31 48.91 C276.26 41.24, 281.7 35.53, 290.89 26.32 M275.25 49.73 C279.77 42.96, 284.99 36.66, 291.92 30.75 M275.76 47.58 C280.45 43.92, 283.08 40.36, 290.41 32.43 M282.24 47.67 C281.91 46.77, 285.15 44.94, 290.14 37.33 M280.78 47.83 C283.84 45.1, 286.5 41.55, 289.26 39.11 M287.32 48.23 C287.11 47.46, 288.42 46.68, 290.5 43.77 M286.67 47.95 C287.91 46.94, 288.74 45.77, 290.39 44.15" stroke="#eaddd7" stroke-width="0.5" fill="none"></path><path d="M-0.35 1.43 C98.54 2.6, 198.1 0.68, 286.78 -0.92 M0.17 0.18 C104.41 0.51, 208.03 -0.1, 287.41 0.66 M288.92 1.89 C288.95 10.1, 290.31 20.79, 286.04 47.26 M287.25 -0.06 C288.07 12.77, 287.92 25.69, 288.45 47.73 M286.91 47.98 C225.98 50.51, 166.88 49.83, -1.14 47.61 M288.39 48.11 C218.05 49.37, 150.17 48.56, -0.25 48.32 M-1.12 49.95 C1.53 36.89, 1.09 21.81, 1.33 -1.74 M0.78 48.86 C0.44 35.25, 0.67 22.21, 0.97 0.68" stroke="#1e1e1e" stroke-width="1" fill="none"></path></g><g transform="translate(305.6697353385389 154.62109375) rotate(0 49.970703125 12.5)"><text x="49.970703125" y="0" font-family="Virgil, Segoe UI Emoji" font-size="20px" fill="#1e1e1e" text-anchor="middle" style="white-space: pre;" direction="ltr" dominant-baseline="text-before-edge">待分配区域</text></g><g stroke-linecap="round" transform="translate(210.41778221353889 89.984375) rotate(0 144 24)"><path d="M0 0 C0 0, 0 0, 0 0 M0 0 C0 0, 0 0, 0 0 M0.08 6.36 C1.21 5.04, 2.82 2.56, 5.13 -0.18 M-0.46 6.12 C1.45 4.32, 3.62 1.55, 4.86 0.3 M-0.41 11.66 C4.07 7.33, 7.5 4.7, 11.35 1.27 M0.59 11.46 C3.5 8.57, 7.91 4.78, 11.19 0.3 M-1.96 16.61 C2.94 14.48, 5.29 11.35, 15.24 -0.22 M-0.37 17.69 C5.07 11.82, 9.5 7.03, 14.96 -0.36 M-1.49 25.24 C3.68 19.35, 7.96 14.58, 23.16 -0.95 M0.99 23.89 C5.76 17.85, 10.54 12.45, 22.24 -0.52 M-0.72 30.9 C8.32 20.96, 12.5 15.01, 25.91 1.87 M-0.44 30.09 C8.55 21.23, 16.33 10.57, 26.28 0.37 M-0.25 38.21 C7.7 27.56, 19.07 17.22, 33.46 -1.61 M-1.11 36.39 C9.63 25.07, 21.54 13.57, 31.29 0.82 M0.58 41.98 C13.45 24.15, 26.83 8.71, 38.08 -0.66 M0.73 42.23 C10.27 31.08, 22.18 17.1, 37.7 -0.49 M2.5 47.64 C17.75 29.05, 30.82 13.4, 41.77 -1.21 M0.15 47.94 C8.93 38.89, 17.43 28.19, 42.86 0.32 M7.13 48.38 C19.46 32.43, 33 14.34, 47.19 -0.98 M5.48 48.3 C20.77 30.86, 34.31 13.31, 48.17 0.51 M11.35 47.92 C26.75 30.17, 41.96 11.86, 53.13 1.24 M10.95 48.5 C24.11 31.74, 37.83 15.94, 53.75 -0.27 M16.62 48.43 C31.26 29.25, 47.31 9.59, 57.41 -1.48 M15.28 48.38 C29.3 33.24, 41.42 18, 57.58 0.18 M21.24 49.37 C32.07 35.5, 45.31 20.65, 64.33 -1.51 M22.01 48.52 C34.73 32.8, 50.24 16.12, 64.15 -0.33 M25.19 50.31 C40.76 33.17, 56.72 14.27, 67.62 0.23 M27.75 49.42 C41.36 31.89, 55.3 15.55, 69.66 -0.28 M31.67 47.75 C42.12 35.75, 48.72 25.52, 73.85 1.06 M31.76 47.49 C43.15 37.19, 51.33 25.97, 74.62 0.63 M35.96 49.93 C55.1 29.3, 70.68 13.31, 77.41 1.33 M38.16 48.23 C50.36 32.5, 64.43 17.76, 79.06 -0.37 M42.89 49.61 C59.64 32.04, 72.98 11.81, 83.9 -0.73 M43.53 48.26 C53.44 38.13, 62.93 25.91, 85.13 -0.07 M47.76 46.96 C61.37 31.56, 78.54 14.44, 89.1 -0.22 M47.14 48.45 C60.47 32.48, 73.32 17.69, 90.31 0.83 M53.82 46.28 C71.46 30.38, 84.62 10.94, 94.4 1.23 M54.54 48.02 C66.68 32.54, 78.25 19.32, 96.03 -1.21 M57.15 46.89 C74.15 32.29, 86.05 13.72, 101.73 0.31 M57.75 47.6 C68.51 37.03, 79.88 26.2, 100.83 -0.44 M63.47 48.63 C75.6 36.4, 84.57 25.27, 105 -1.2 M64.25 48.1 C74.29 36.14, 83.63 24.64, 107.05 -0.75 M68.39 46.97 C80.34 34.12, 91.69 21.82, 113.06 0.44 M68.42 48.05 C81.1 35.93, 91.11 24.24, 111.95 0.44 M75.54 50.04 C83.95 35.64, 94.2 24.43, 116.42 -1.59 M73.97 47.92 C90.71 28.49, 107.79 9.46, 115.69 -0.01 M79.47 50.23 C91.44 33.92, 103.39 21.55, 121.55 0.46 M79.96 48.01 C95.45 30.74, 109.33 14.56, 121.85 -0.57 M84.47 48.95 C96.16 37.34, 105.48 25.02, 127.04 -0.03 M83.93 48.52 C98.05 34.07, 111.51 18.62, 126.78 0.28 M92.1 47.48 C97.78 38.37, 107.93 27.53, 132.41 1.47 M90.58 48.6 C103.78 30.92, 118.35 14.65, 132.64 0.87 M96.07 47.79 C107.88 32.09, 124.56 14.07, 139.02 -0.52 M94.92 48.53 C110.4 33.36, 123.31 16.65, 137.57 -0.5 M101.71 47.32 C110.66 35.39, 122.36 23.82, 143.54 -0.69 M100.9 48.74 C113.68 32.42, 126.88 17.15, 143.31 0.45 M104.89 47.82 C113.57 40.08, 122.41 28.44, 146.87 -0.08 M106.6 47.95 C121.55 32.25, 135.75 13.39, 147.38 1.15 M111.45 50.13 C125.36 34.72, 139.65 18.33, 155.57 -1.36 M110.89 48.25 C127.18 32.23, 140.98 14.96, 154.72 0.21 M116.18 47.05 C128.09 33.18, 142.42 19.99, 158.83 2.09 M116.55 49.16 C128.77 34.97, 141.72 20.59, 157.89 0.58 M122.18 50.08 C134.26 36.28, 146.43 20.71, 165.86 -1.12 M122.96 48.79 C137.95 29.81, 155.05 11.42, 164.66 -0.43 M127.9 50.28 C138.09 37.05, 148.82 22.08, 170.87 -1.46 M127.22 47.88 C138.81 36.37, 148.97 25.74, 170.2 0.01 M134.49 49.08 C148.85 31.21, 161.56 16.8, 174.47 0.23 M132.87 48.9 C148.96 29, 165.7 11.49, 174.76 0.3 M136.76 47.09 C153.08 31.51, 164.37 19.24, 180.65 -0.37 M138.96 48.18 C150.11 34.78, 159.77 23.43, 179.78 -0.48 M142.67 46.88 C153.9 34.66, 164.95 23.36, 186.18 1.68 M142.78 48.95 C159.31 31.31, 174.78 12.07, 185.58 -0.49 M148.17 49.84 C161.37 31.67, 176.44 19.69, 189.58 -0.52 M148.99 47.5 C158.76 37.34, 168.65 25.44, 191.51 0.02 M152.74 46.97 C168.86 31.11, 180.7 17.83, 196.51 -0.99 M154.26 48.19 C170.43 30.44, 185.39 13.5, 195.57 0.71 M158.26 47.68 C170.21 37.33, 182.18 24.64, 200.77 2 M158.44 47.64 C175.27 29.66, 192.15 10.32, 200.63 0.32 M164.46 46.63 C177.36 33.3, 192.83 16.74, 205.67 -1.26 M165.24 47.73 C176.36 34.76, 185.93 22.74, 206.05 -1.27 M171.87 48.53 C185.84 30.55, 200.76 13.01, 213.05 -1.12 M169.34 47.77 C185.09 31.14, 201.57 12.15, 211.81 0.07 M177.26 46.94 C186.83 36.05, 193.93 25.45, 216.62 0.23 M175.08 47.53 C190.36 31.52, 205.74 15.52, 218.23 -1.22 M180.58 49.1 C190.86 37.59, 196.99 26.85, 222.98 -0.4 M179.59 47.4 C197.35 30.02, 213.9 10.45, 222.08 0.77 M183.69 47.48 C201.23 32.3, 214.66 15.34, 229 1.58 M184.83 48.17 C194.58 38.83, 202.71 27.28, 228.24 -0.57 M192.66 48.86 C208.48 28.32, 224.91 8.62, 234.82 1.4 M191.98 47.41 C201.69 34.96, 212.87 23.28, 233.87 0.8 M197.94 49.38 C208.61 33.91, 224.01 19.12, 236.55 -1.57 M196.93 48.82 C211.96 29.3, 229.85 9.44, 237.41 0.35 M203.14 48.1 C212.13 36.94, 224.82 21.02, 242.57 -0.69 M201.22 49.03 C215.35 32, 231.76 14.66, 244 0.38 M205.97 49.81 C219.82 31.46, 236.9 17.18, 247.68 -1.04 M206.23 48.77 C222.92 31.61, 237.21 12.85, 247.95 0.33 M211.72 49.85 C219.69 36.45, 230.09 26.36, 255.94 0.16 M212.86 48.87 C224.19 34.41, 235.95 23.25, 254.69 0.61 M218.12 48.95 C228.36 33.67, 241.88 19.13, 259.55 -1.62 M217.64 49.43 C233.02 31.54, 245.93 14.66, 259.98 0.75 M224.85 49.96 C237.37 30.37, 252.49 13.09, 266.34 0.54 M222.39 47.87 C237.24 30.82, 252.36 14.05, 264.54 0.43 M226.44 48.77 C238.55 36.71, 251.53 23.63, 270.69 1.91 M228.43 48.06 C238.17 37.71, 247.95 24.33, 269.19 -0.38 M233.71 47.03 C245.64 36.64, 255.49 22.13, 276.94 0.82 M234.17 48.36 C250.46 30.63, 264.64 12.53, 275.54 -0.35 M238.7 47.02 C247.92 36.08, 259.95 25.04, 282.36 -0.42 M239.3 48.77 C255.36 30.95, 269.99 11.43, 281.13 -0.69 M244.15 48.45 C252.24 39.39, 261.86 27.96, 284.59 -0.83 M244.44 49 C254.78 35.58, 264.66 24.47, 286.07 -0.07 M248.39 47.25 C263.21 33.18, 274.99 17.97, 291.23 1.7 M249.31 47.56 C264.67 32.06, 276.92 16.99, 290.94 1.04 M254.79 48.4 C269.16 34.68, 282.1 18.85, 290.66 9.83 M254.36 47.84 C264.86 36.02, 275.57 24.23, 290.7 8.11 M260.72 48.76 C265.46 38.86, 273.27 31.38, 290.1 14.9 M260.93 49.25 C269.06 38.4, 278.89 28.78, 291.1 13.95 M266.94 49.84 C269.96 41.2, 276.43 36.8, 289.38 19.99 M264.94 47.26 C271.32 41.77, 276.71 34.96, 289.53 20.04 M270.61 48.65 C277.02 39.63, 287.09 30.5, 289.59 24.98 M271.01 48.54 C277.61 40.79, 283.29 34.95, 290.02 24.91 M274.65 46.49 C278.67 44.29, 283.98 40.57, 290.07 33.37 M276.12 49.01 C281.37 41.51, 285.63 36, 289.38 31.2 M280.9 48 C284.69 46.82, 285.83 42.58, 289.38 38.09 M281.6 48.78 C283.16 45.71, 284.71 43.37, 290.04 38.52 M286.83 48.21 C287.07 46.75, 288.64 46.13, 289.74 43.98 M287.09 47.8 C288.2 46.96, 289.25 45.5, 290.18 44.33" stroke="#eaddd7" stroke-width="0.5" fill="none"></path><path d="M0.66 1.05 C89.06 0.66, 175.26 -0.82, 288.3 0.97 M-0.36 0.66 C72.43 1.9, 146.25 1.97, 287.63 0.32 M287.33 -0.81 C289.85 18.66, 287.81 35.7, 286.86 48.77 M287.79 -0.52 C288.06 13.05, 288.05 24.84, 288.51 48.3 M286.64 46.58 C180.39 47.07, 72.07 46.19, -1.36 48.34 M287.64 47.86 C223.94 47.48, 161.7 47.3, 0.67 48.46 M0.85 46.66 C-0.38 31.68, -0.04 12.93, 1.87 -0.07 M-0.52 48.26 C-0.16 36.64, -0.31 25.86, 0.83 -0.02" stroke="#6741d9" stroke-width="1" fill="none"></path></g><g transform="translate(324.4177822135389 101.484375) rotate(0 30 12.5)"><text x="30" y="0" font-family="Virgil, Segoe UI Emoji" font-size="20px" fill="#6741d9" text-anchor="middle" style="white-space: pre;" direction="ltr" dominant-baseline="text-before-edge">用户栈</text></g><g stroke-linecap="round" transform="translate(210.12481346353889 18.84375) rotate(0 144 32.5)"><path d="M0 0 C0 0, 0 0, 0 0 M0 0 C0 0, 0 0, 0 0 M-0.2 6.16 C0.47 4.71, 2.58 3.01, 4.19 0.08 M-0.64 6.25 C0.91 5.2, 2.03 3.49, 5.12 -0.01 M1.38 11.05 C4 8.73, 5.78 5.21, 11.54 0.39 M-0.09 12.09 C3.05 8.67, 7.03 4.35, 11.08 -0.5 M0.52 20.26 C5.62 15.91, 7.98 10.57, 15 1.97 M0.22 18.58 C5.7 11.37, 12.67 3.5, 14.91 -0.63 M-0.58 22.61 C4.5 16.53, 13.37 10.81, 20.29 -0.72 M-0.67 23.29 C6.08 16.92, 14.29 7.74, 21.93 0.31 M1.27 30.9 C6.57 23.99, 9.6 18.01, 26.38 1.85 M-0.81 30.61 C7.05 23.1, 14.76 14.88, 26.12 -0.65 M0.21 35.62 C8.59 28.59, 17.14 21.03, 33.29 -0.47 M-0.96 37.63 C9.46 24.57, 18.58 14.17, 32.08 0.22 M0.51 43.19 C7.72 31.91, 17.96 19.34, 35.78 -1.24 M0.51 42.81 C11.94 27.47, 24.69 15.16, 36 0.7 M1.39 48.41 C11.3 37.37, 20.96 23.84, 41.54 0.8 M-0.32 49.65 C13.86 31.57, 29.54 16.11, 41.99 -1 M-1.59 53.33 C15.07 34.13, 32.2 16.5, 48.62 1.89 M0.85 53.79 C15.44 37.45, 31.07 20.33, 46.96 1.16 M1.1 59.53 C13.96 45.65, 26.05 30.91, 51.61 -0.6 M-0.69 60.5 C19.75 37.5, 39.86 14.52, 52.89 -0.53 M-0.43 65.47 C21.33 40.09, 47.18 14.31, 59.11 0.12 M0.4 66.26 C22.29 42.84, 42.13 17.56, 57.76 -0.15 M4.82 67.72 C23.8 43.74, 41.25 23.26, 63.84 -1.68 M6.91 67.2 C20.03 51.21, 34.25 34.03, 63.84 0.3 M10.89 64.68 C27.66 46.49, 44.87 26.88, 68.22 0.07 M11.71 65.05 C28.57 46.99, 45.91 27.81, 68.55 0.27 M17.61 65.73 C32.54 45.42, 52.11 26.83, 74.37 1.29 M17.62 65.46 C34.09 47.25, 49.48 28.37, 74.78 -0.93 M24.04 66.63 C38.59 46.97, 53.5 26.14, 77.74 0.07 M23.2 65.73 C39.65 44.81, 56.27 24.86, 79.79 -0.68 M26.02 65.79 C47.92 40.97, 72.46 17.17, 85.1 -1.25 M27.63 66.16 C45.64 45.85, 62.63 25.59, 85.5 -0.73 M34.28 66.38 C50.71 45.79, 68.14 23.52, 88.2 0.18 M32.97 66.47 C49.83 45.32, 67.65 26.1, 89.35 0.29 M35.97 64.59 C52.48 48.91, 64.94 35.84, 93.73 -2.14 M37.1 65.25 C49.94 52.37, 63.09 37.12, 96.65 -0.76 M44.7 63.73 C64.29 40.07, 90.27 15.42, 100.94 0.17 M43.99 66.31 C65.4 39.31, 87.74 13.78, 101.42 -0.13 M50.16 66.51 C64.87 47.32, 82.91 27.35, 107.71 0.5 M48.57 66.13 C60.3 53.27, 72.66 39.11, 106.74 -0.76 M56.14 65.17 C76.73 42.1, 96.14 17.12, 112.08 1.52 M55.07 66.2 C72.98 45.71, 91.33 24.19, 111.58 -0.88 M58.09 65.68 C80.55 40.67, 103.85 16.74, 117.66 2.03 M59.89 66.53 C81.57 41.52, 103.36 16.07, 116.49 1.16 M65.22 65.93 C79.68 49, 95.04 28.89, 122.5 1.45 M63.9 65.96 C79.23 47.21, 95.96 29.36, 121.74 0.51 M70.02 67.93 C90.6 43.97, 109.57 21.93, 125.91 2.26 M69.32 65.62 C85.3 47.72, 100.87 29.94, 126.43 0.53 M74.36 63.96 C91.49 45.66, 111.37 24.22, 131.88 -1.11 M76.02 65.31 C91.85 47.25, 108.38 26.84, 133.18 0.89 M79 64.8 C95.21 48.38, 107.96 34.59, 136.63 -0.03 M80.44 66.94 C101.55 40.32, 125.06 14.81, 138 0.03 M85.73 65.91 C103.82 45.24, 123.41 24.34, 144.67 0.47 M85.84 64.87 C97.73 50.71, 110.95 36.97, 143.56 0.51 M90.87 67.58 C104.25 46.02, 120.71 30.41, 148.4 -0.08 M91.21 65.41 C103.92 49.97, 117.14 35.44, 149.14 -0.53 M95.33 65.17 C111.05 49.76, 124.6 32.88, 152.12 -1.43 M97.6 65.13 C110.24 51.51, 121.59 37.66, 153.88 -0.01 M102.22 65.25 C121.14 40.97, 141.82 20.16, 159.62 -0.41 M100.95 66.35 C118.9 47.04, 135.3 28.12, 158.67 -0.45 M106.23 64.58 C119.99 48.41, 135.72 32.48, 166.23 1.26 M105.79 66.24 C128.32 42.95, 149.81 18.13, 163.49 -0.63 M110.46 66.52 C128.76 42.5, 149.27 24.23, 170.43 -0.83 M113.34 66.48 C125.21 48.53, 141.02 33.25, 169.25 0.87 M117.29 67.47 C134.78 43.18, 156.1 22.91, 173.82 -1.64 M116.68 65.97 C135.62 45.9, 152.48 25.1, 175.12 -0.95 M123.77 65.81 C145.78 39.31, 165.83 14.12, 180.77 -0.43 M123.4 64.91 C144.23 42, 163.74 17.87, 180.41 0.92 M129.17 68.11 C142.64 51.45, 152.32 37.35, 186.45 -0.63 M127.46 65.26 C141.4 51.58, 152.96 37.55, 185.85 -1.15 M135.08 65.28 C146.07 51.5, 159.13 35.53, 192.38 0.41 M134.53 66.12 C150.97 45.35, 168.98 23.74, 191.53 1.06 M136.96 66.78 C151.87 49.92, 167.58 35.26, 194.49 -0.45 M137.83 66.16 C150.48 53.37, 162.14 37.63, 196.12 -1.04 M144.16 64.78 C166.25 42.68, 187.44 14.99, 202.74 2.06 M143.48 65 C162.53 44.78, 179.63 22.98, 200.85 -0.43 M147.54 64.42 C167.8 47.3, 186.35 23.92, 205.09 -2.16 M148.34 65.63 C170.18 43.26, 189.25 18.37, 206.74 -1.04 M155.5 63.91 C173.91 40.97, 194.8 16.6, 211.15 -0.42 M155.36 65.82 C167.63 49.97, 182.1 34.41, 212.49 0.61 M161.56 64.76 C179.05 43.44, 197.45 24.38, 216.17 -1.07 M159.42 66.52 C172.41 51.82, 185.17 38.78, 217.84 -1.16 M164.41 63.96 C186.63 41.97, 207.68 18.47, 220.66 0.75 M164.65 65.25 C181.68 46.89, 197.34 28.37, 223.4 -0.78 M171.48 64.18 C193.93 40.66, 216.22 16.09, 226.43 -0.79 M170.33 66.55 C190.68 44.05, 209.91 22.12, 227.97 -0.03 M174.98 65.95 C188.57 53.83, 200.22 36.86, 232.13 0.07 M176.18 65.34 C191.08 46.99, 207.2 29.89, 232.41 0.35 M179.5 65.83 C201.57 40.29, 224.13 17.73, 236.71 1.55 M180.22 65.36 C203.74 40.06, 226.42 15.05, 238.33 0.85 M186.05 64.62 C204.56 42.47, 223.67 20.34, 242.19 0.79 M186.13 66.55 C209.56 40.31, 230.69 13.79, 243.2 -0.19 M191.63 65.55 C210.21 48.08, 225.37 27.48, 250.58 2.28 M191.08 65.47 C214.71 41.44, 235.74 14.49, 248.48 1.13 M197.28 66.44 C211.7 46.34, 228.38 31.03, 253.23 0.83 M197.06 64.7 C212.43 48.05, 226.9 30.44, 255.31 -0.66 M203.66 65.92 C218.54 48.74, 234.81 30.04, 260.44 1.7 M202.76 65.28 C217.69 47.35, 233.3 30.59, 259.36 1.1 M207.1 63.58 C224.57 47.35, 242.02 23.9, 263.46 -1.15 M208.87 66.03 C221.8 50.01, 236.41 35.75, 265.15 -0.46 M211.15 66.21 C229.71 49.82, 243.42 29.84, 268.11 -0.91 M213.97 66.08 C232.42 44.48, 251.09 20.73, 270.92 -0.31 M218.69 63.93 C232.83 49.7, 245.03 38.96, 276.83 0.25 M217.84 66.16 C235.51 46.08, 253.42 24.91, 274.97 -1.09 M223.45 64.43 C243.46 41.46, 263.75 20.59, 282.22 -0.57 M223.3 65.07 C234.76 51.93, 247.15 38.87, 280.48 0.23 M229.41 65.87 C253.12 39.8, 273.5 16.69, 285.12 -0.89 M228.93 65.84 C240.54 53.52, 252.99 38.97, 285.89 -1.16 M233.68 67.31 C251.88 45.96, 268.31 26.89, 290.84 0.93 M234.17 66.33 C247.79 50.39, 261.96 34.63, 290.4 0.94 M239.32 65.22 C254.82 48.98, 268.3 34.67, 290.62 8.56 M239.45 66.97 C254.73 48.42, 271.46 30.34, 289.68 8.92 M244.75 64.29 C257.73 51.09, 274 33.65, 290.28 15.1 M245.87 65.83 C260.69 48.48, 276.63 29.82, 289.85 13.97 M249.32 65.78 C261.72 51.36, 275.18 37.94, 290.6 21.61 M250.08 66.1 C262.25 50.03, 275.56 35.66, 290.11 20.8 M255.36 65.54 C266.6 50.86, 281.08 37.06, 290.66 25.5 M254.56 66.43 C267.94 51.26, 281.39 36.05, 289.39 25.26 M261.74 66.33 C266.68 56.28, 274.15 47.19, 291.42 30.73 M260.53 66.4 C267.38 58.55, 274.1 51.96, 290.16 32.77 M265.97 63.92 C274.72 53.26, 282.91 44.94, 291.08 36.75 M266.24 64.87 C273.31 58.44, 279.91 48.65, 289.13 38.44 M269.69 67.35 C274.12 62.09, 277.15 57.16, 291.97 44.91 M271.87 65.44 C277.17 60.38, 281.02 54.94, 290.39 43.77 M276.83 65.05 C279.68 58.96, 285.69 54.22, 289.37 50.93 M275.79 64.8 C279.87 61.59, 284.63 58.53, 289.5 50.27 M282.62 65.41 C286.11 62.05, 288.86 58.96, 289.4 55.98 M281.6 66.15 C283.79 64.24, 285.09 61.83, 290.89 56.51 M287.13 65.58 C287.92 64.88, 288.85 64.16, 289.67 62.54 M287.52 65.69 C288.2 64.61, 288.92 63.95, 290.09 62.56" stroke="#eaddd7" stroke-width="0.5" fill="none"></path><path d="M-1.07 0.86 C107.68 -1.3, 216.66 0.08, 288.87 1.48 M0.68 -0.28 C69.14 -2.22, 137.66 -2.73, 287.31 -0.27 M286.95 -1.21 C288.88 22.82, 286.04 48.17, 288.69 63.11 M287.17 -0.35 C288.5 24.56, 288.4 48.67, 287.89 64.86 M287.5 65.65 C211.89 62.67, 136.18 64.44, -1.11 65.46 M287.33 65.62 C192.47 65.69, 95.52 65.9, -0.39 64.42 M1.2 65.4 C0.3 46.08, 1.46 27.42, -1.87 -1.2 M-0.64 65.77 C-0.09 41.06, -0.01 17.1, 0.31 -0.8" stroke="#846358" stroke-width="1" fill="none"></path></g><g transform="translate(314.1052822135389 38.84375) rotate(0 40.01953125 12.5)"><text x="40.01953125" y="0" font-family="Virgil, Segoe UI Emoji" font-size="20px" fill="#846358" text-anchor="middle" style="white-space: pre;" direction="ltr" dominant-baseline="text-before-edge">内核空间</text></g><g stroke-linecap="round"><g transform="translate(17.382625963538885 16.7421875) rotate(0 92.50519200740382 -0.37286768814018956)"><path d="M0.59 0.19 C42.21 0.04, 87 1.22, 183.4 -1.06 M0.74 -0.14 C60.39 -2.11, 121.95 -0.49, 184.42 -0.37" stroke="#846358" stroke-width="1" fill="none"></path></g></g><mask></mask><g stroke-linecap="round"><g transform="translate(19.643058956135064 82.62677393814022) rotate(0 92.44464264623821 0.02194303033087408)"><path d="M-1.55 0.98 C62.26 -2.05, 126.31 -1.99, 186.44 1.28 M-0.86 -0.68 C50.56 0.75, 99.63 1.73, 185.43 0.61" stroke="#846358" stroke-width="1" fill="none"></path></g></g><mask></mask><g transform="translate(112.94121971353889 36.80859375) rotate(0 14.921875 12.5)"><text x="0" y="0" font-family="Virgil, Segoe UI Emoji" font-size="20px" fill="#846358" text-anchor="start" style="white-space: pre;" direction="ltr" dominant-baseline="text-before-edge">1GB</text></g><g stroke-linecap="round"><g transform="translate(11.879389567300677 592.9429007196692) rotate(0 92.66973148472607 0.433651688514999)"><path d="M-1.88 -0.01 C56.29 2.45, 107.68 2.77, 187.22 0.8 M-0.07 -0.24 C64 -2.3, 129.17 -0.72, 184.77 1.07" stroke="#846358" stroke-width="1" fill="none"></path></g></g><mask></mask><g transform="translate(29.015438463538885 251.20703125) rotate(0 10 62.5)"><text x="0" y="0" font-family="Virgil, Segoe UI Emoji" font-size="20px" fill="#846358" text-anchor="start" style="white-space: pre;" direction="ltr" dominant-baseline="text-before-edge">用</text><text x="0" y="25" font-family="Virgil, Segoe UI Emoji" font-size="20px" fill="#846358" text-anchor="start" style="white-space: pre;" direction="ltr" dominant-baseline="text-before-edge">户</text><text x="0" y="50" font-family="Virgil, Segoe UI Emoji" font-size="20px" fill="#846358" text-anchor="start" style="white-space: pre;" direction="ltr" dominant-baseline="text-before-edge">态</text><text x="0" y="75" font-family="Virgil, Segoe UI Emoji" font-size="20px" fill="#846358" text-anchor="start" style="white-space: pre;" direction="ltr" dominant-baseline="text-before-edge">空</text><text x="0" y="100" font-family="Virgil, Segoe UI Emoji" font-size="20px" fill="#846358" text-anchor="start" style="white-space: pre;" direction="ltr" dominant-baseline="text-before-edge">间</text></g><g transform="translate(86.54278221353889 302.78515625) rotate(0 17.158203125 12.5)"><text x="0" y="0" font-family="Virgil, Segoe UI Emoji" font-size="20px" fill="#846358" text-anchor="start" style="white-space: pre;" direction="ltr" dominant-baseline="text-before-edge">3GB</text></g><g stroke-linecap="round"><g transform="translate(494.3591884635389 594.66796875) rotate(0 49.323285864666104 0.17634420336901258)"><path d="M3.07 1.12 C26.27 0.85, 47.15 -2.56, 92.51 0.5 M1.7 1.04 C35.64 -1.7, 73.34 0.8, 96.95 0.8" stroke="#846358" stroke-width="1" fill="none"></path></g><g transform="translate(494.3591884635389 594.66796875) rotate(0 49.323285864666104 0.17634420336901258)"><path d="M71.64 11.64 C78.2 9.59, 82.37 3.74, 93.16 1.11 M70.27 11.57 C77.91 5.82, 89.26 4.47, 97.6 1.41" stroke="#846358" stroke-width="1" fill="none"></path></g><g transform="translate(494.3591884635389 594.66796875) rotate(0 49.323285864666104 0.17634420336901258)"><path d="M72.03 -8.87 C78.35 -5.88, 82.42 -6.67, 93.16 1.11 M70.66 -8.95 C78.07 -6.74, 89.27 -0.13, 97.6 1.41" stroke="#846358" stroke-width="1" fill="none"></path></g></g><mask></mask><g stroke-linecap="round"><g transform="translate(313.4433246031342 550.4878298250088) rotate(0 139.29767616275853 -0.032676856766840956)"><path d="M-1.03 0.62 C107.24 -2.2, 214.73 -2.68, 277.88 1.5 M0.61 -0.47 C78.89 -1.17, 157.2 -1.09, 279.63 -0.66" stroke="#846358" stroke-width="1" fill="none"></path></g><g transform="translate(313.4433246031342 550.4878298250088) rotate(0 139.29767616275853 -0.032676856766840956)"><path d="M250.06 10.33 C262.48 4.67, 273.81 0.11, 277.98 1.24 M252.2 8.91 C260.2 5.86, 268.18 3.1, 280.25 -1.57" stroke="#846358" stroke-width="1" fill="none"></path></g><g transform="translate(313.4433246031342 550.4878298250088) rotate(0 139.29767616275853 -0.032676856766840956)"><path d="M250.12 -10.19 C262.37 -7.98, 273.68 -4.66, 277.98 1.24 M252.26 -11.61 C260.13 -8.9, 268.1 -5.91, 280.25 -1.57" stroke="#846358" stroke-width="1" fill="none"></path></g></g><mask></mask><g transform="translate(595.3279384635389 584.453125) rotate(0 55.634765625 12.5)"><text x="0" y="0" font-family="Virgil, Segoe UI Emoji" font-size="20px" fill="#846358" text-anchor="start" style="white-space: pre;" direction="ltr" dominant-baseline="text-before-edge"> 0x0000 0000</text></g><g transform="translate(607.6248134635389 535.93359375) rotate(0 52.119140625 12.5)"><text x="0" y="0" font-family="Virgil, Segoe UI Emoji" font-size="20px" fill="#846358" text-anchor="start" style="white-space: pre;" direction="ltr" dominant-baseline="text-before-edge">0x0804 8000</text></g><g transform="translate(604.3591884635389 71.94921875) rotate(0 47.841796875 12.5)"><text x="0" y="0" font-family="Virgil, Segoe UI Emoji" font-size="20px" fill="#846358" text-anchor="start" style="white-space: pre;" direction="ltr" dominant-baseline="text-before-edge">0xC000 000</text></g><g transform="translate(597.7849697135389 11.9296875) rotate(0 60.126953125 12.5)"><text x="0" y="0" font-family="Virgil, Segoe UI Emoji" font-size="20px" fill="#846358" text-anchor="start" style="white-space: pre;" direction="ltr" dominant-baseline="text-before-edge">0xFFFF FFFF</text></g><g stroke-linecap="round"><g transform="translate(500.0866838488728 79.57400961057306) rotate(0 49.04471394792205 1.2691672238271252)"><path d="M0.3 1.35 C26.71 -0.54, 59.2 1.2, 97.79 1.65 M0.43 0.96 C26.04 0.25, 53.91 1.81, 94.67 2.05" stroke="#846358" stroke-width="1" fill="none"></path></g><g transform="translate(500.0866838488728 79.57400961057306) rotate(0 49.04471394792205 1.2691672238271252)"><path d="M66.64 13.26 C72.25 9.43, 84.01 8.01, 97.52 3.41 M66.77 12.87 C72.74 8.07, 81.09 6.65, 94.4 3.81" stroke="#846358" stroke-width="1" fill="none"></path></g><g transform="translate(500.0866838488728 79.57400961057306) rotate(0 49.04471394792205 1.2691672238271252)"><path d="M66.93 -7.26 C72.61 -4.7, 84.29 0.27, 97.52 3.41 M67.06 -7.65 C73.19 -6.44, 81.45 -1.85, 94.4 3.81" stroke="#846358" stroke-width="1" fill="none"></path></g></g><mask></mask><g stroke-linecap="round"><g transform="translate(502.7206940489257 21.011787754530417) rotate(0 40.86046274628518 0.11468750354435997)"><path d="M-1.41 0.56 C32.69 1, 66.69 0.2, 83.13 0.94 M-0.89 -0.71 C17.12 -0.43, 35.84 0.37, 82.68 -0.71" stroke="#846358" stroke-width="1" fill="none"></path></g><g transform="translate(502.7206940489257 21.011787754530417) rotate(0 40.86046274628518 0.11468750354435997)"><path d="M53.23 10.53 C65.69 7.07, 78.03 2.18, 82.54 0.49 M53.75 9.26 C59.81 7.55, 66.6 6.1, 82.09 -1.17" stroke="#846358" stroke-width="1" fill="none"></path></g><g transform="translate(502.7206940489257 21.011787754530417) rotate(0 40.86046274628518 0.11468750354435997)"><path d="M52.93 -9.99 C65.51 -5.41, 77.98 -2.26, 82.54 0.49 M53.45 -11.26 C59.61 -8.54, 66.47 -5.56, 82.09 -1.17" stroke="#846358" stroke-width="1" fill="none"></path></g></g><mask></mask><g stroke-linecap="round"><g transform="translate(767.2537197135389 607.1796875) rotate(0 -1.2696604635499398 -295.9206122193485)"><path d="M-0.11 -0.32 C1.37 -214.87, -0.15 -429.18, -3.06 -591.32 M-0.25 0.04 C1.21 -155.33, 0.72 -311.33, -2.9 -591.88" stroke="#846358" stroke-width="1" fill="none"></path></g><g transform="translate(767.2537197135389 607.1796875) rotate(0 -1.2696604635499398 -295.9206122193485)"><path d="M7.39 -564.6 C5.51 -574.27, 0.49 -583.27, -3.3 -590.18 M7.05 -563.7 C5.44 -570.66, 3.33 -579.17, -2.91 -591.59" stroke="#846358" stroke-width="1" fill="none"></path></g><g transform="translate(767.2537197135389 607.1796875) rotate(0 -1.2696604635499398 -295.9206122193485)"><path d="M-13.13 -564.38 C-7.56 -573.96, -5.14 -583.04, -3.3 -590.18 M-13.47 -563.48 C-9.69 -570.39, -6.41 -578.97, -2.91 -591.59" stroke="#846358" stroke-width="1" fill="none"></path></g></g><mask></mask><g transform="translate(798.2498134635389 593.52734375) rotate(0 30 12.5)"><text x="0" y="0" font-family="Virgil, Segoe UI Emoji" font-size="20px" fill="#846358" text-anchor="start" style="white-space: pre;" direction="ltr" dominant-baseline="text-before-edge">低地址</text></g><g transform="translate(788.4255947135389 10) rotate(0 30 12.5)"><text x="0" y="0" font-family="Virgil, Segoe UI Emoji" font-size="20px" fill="#846358" text-anchor="start" style="white-space: pre;" direction="ltr" dominant-baseline="text-before-edge">高地址</text></g><g stroke-linecap="round"><g transform="translate(511.8982509635389 97.26953125) rotate(0 -0.11022563697770238 19.714194354135543)"><path d="M-1.85 1.38 C1.45 15.97, -0.17 29.7, -0.22 39.7 M0.58 -0.27 C0.96 13.3, 0.96 28.75, 1.63 38.48" stroke="#846358" stroke-width="1" fill="none"></path></g><g transform="translate(511.8982509635389 97.26953125) rotate(0 -0.11022563697770238 19.714194354135543)"><path d="M-7.43 22.21 C-1.92 29.2, -1.17 35.41, 0.32 40.05 M-5.12 20.65 C-2.35 26.72, -0.06 34.53, 2.07 38.89" stroke="#846358" stroke-width="1" fill="none"></path></g><g transform="translate(511.8982509635389 97.26953125) rotate(0 -0.11022563697770238 19.714194354135543)"><path d="M5.58 21.63 C6.29 28.9, 2.24 35.33, 0.32 40.05 M7.89 20.07 C5.83 26.23, 3.31 34.25, 2.07 38.89" stroke="#846358" stroke-width="1" fill="none"></path></g></g><mask></mask><g stroke-linecap="round"><g transform="translate(515.6638759635389 380.14453125) rotate(0 -0.46867048826231894 -34.33964130934328)"><path d="M0.01 -0.43 C1.96 -22.18, -1.31 -41.93, -1.56 -68.2 M-0.33 -0.29 C0.9 -16.15, -0.76 -31.06, -0.51 -68.39" stroke="#846358" stroke-width="1" fill="none"></path></g><g transform="translate(515.6638759635389 380.14453125) rotate(0 -0.46867048826231894 -34.33964130934328)"><path d="M9.92 -40.68 C8.58 -49.74, 2.38 -56.75, -0.98 -67.95 M9.58 -40.55 C8.43 -47.25, 4.66 -53, 0.08 -68.14" stroke="#846358" stroke-width="1" fill="none"></path></g><g transform="translate(515.6638759635389 380.14453125) rotate(0 -0.46867048826231894 -34.33964130934328)"><path d="M-10.6 -40.57 C-5.49 -49.56, -5.23 -56.61, -0.98 -67.95 M-10.94 -40.43 C-7.45 -47.16, -6.59 -52.94, 0.08 -68.14" stroke="#846358" stroke-width="1" fill="none"></path></g></g><mask></mask></svg>